<svg xmlns="http://www.w3.org/2000/svg" width="1254" height="1254" viewBox="0 0 1254 1254" fill="none">
  <path d="M 561 725 L 561 729 L 560 730 L 560 748 L 561 749 L 561 752 L 562 753 L 563 758 L 567 766 L 570 770 L 583 782 L 591 786 L 593 786 L 597 788 L 600 788 L 601 789 L 676 789 L 677 788 L 681 788 L 687 785 L 689 785 L 701 777 L 706 772 L 711 763 L 713 761 L 713 759 L 716 753 L 717 743 L 718 742 L 718 735 L 717 734 L 716 725 L 715 724 L 714 719 L 708 709 L 701 701 L 691 694 L 689 694 L 686 692 L 684 692 L 680 690 L 676 690 L 675 689 L 605 689 L 604 690 L 594 691 L 583 696 L 570 708 L 566 714 Z M 583 735 L 584 734 L 584 730 L 587 724 L 594 717 L 602 713 L 616 713 L 617 712 L 671 712 L 682 716 L 689 722 L 692 727 L 692 729 L 694 733 L 694 745 L 691 751 L 691 753 L 686 759 L 678 764 L 672 765 L 671 766 L 606 766 L 605 765 L 602 765 L 597 763 L 587 754 L 584 748 L 584 744 L 583 743 Z M 859 583 L 858 584 L 856 584 L 851 589 L 850 591 L 850 596 L 849 597 L 848 633 L 847 634 L 847 657 L 846 658 L 846 749 L 847 750 L 847 767 L 848 768 L 848 783 L 849 784 L 850 804 L 851 805 L 851 812 L 852 813 L 852 819 L 853 820 L 853 828 L 854 829 L 854 837 L 855 838 L 855 844 L 856 845 L 856 852 L 857 853 L 858 865 L 860 869 L 863 872 L 868 874 L 871 874 L 878 871 L 882 865 L 881 850 L 880 849 L 880 844 L 879 843 L 879 835 L 878 834 L 878 829 L 877 828 L 876 813 L 875 812 L 875 804 L 874 803 L 874 794 L 873 793 L 873 785 L 872 784 L 872 773 L 871 772 L 870 743 L 869 742 L 869 663 L 870 662 L 870 633 L 871 632 L 871 617 L 872 616 L 872 601 L 873 600 L 873 592 L 871 588 L 868 585 L 864 583 Z M 415 583 L 410 583 L 406 585 L 403 588 L 401 592 L 401 600 L 402 601 L 402 619 L 403 620 L 403 635 L 404 636 L 404 651 L 405 652 L 405 694 L 406 695 L 405 757 L 404 758 L 404 771 L 403 772 L 403 781 L 402 782 L 402 794 L 401 795 L 401 803 L 400 804 L 400 814 L 399 815 L 399 821 L 398 822 L 398 828 L 397 829 L 397 836 L 396 837 L 396 841 L 395 842 L 395 848 L 394 849 L 394 854 L 393 855 L 392 864 L 395 870 L 399 873 L 401 873 L 402 874 L 407 874 L 413 871 L 417 863 L 417 856 L 418 855 L 419 841 L 420 840 L 420 834 L 421 833 L 421 827 L 422 826 L 423 810 L 424 809 L 425 788 L 426 787 L 426 778 L 427 777 L 427 762 L 428 761 L 428 741 L 429 740 L 429 672 L 428 671 L 428 648 L 427 647 L 427 630 L 426 629 L 425 597 L 424 596 L 424 591 L 421 586 Z M 562 608 L 562 611 L 560 615 L 560 633 L 561 634 L 561 638 L 566 649 L 570 655 L 579 664 L 589 670 L 591 670 L 598 673 L 601 673 L 602 674 L 674 674 L 675 673 L 679 673 L 680 672 L 686 671 L 697 665 L 701 661 L 702 661 L 702 660 L 708 654 L 711 648 L 713 646 L 713 644 L 715 641 L 716 635 L 717 634 L 717 628 L 718 627 L 717 614 L 716 613 L 715 607 L 713 604 L 713 602 L 711 600 L 710 597 L 707 593 L 694 581 L 680 575 L 675 575 L 674 574 L 605 574 L 604 575 L 595 576 L 582 582 L 578 585 L 568 596 Z M 583 620 L 584 619 L 584 615 L 588 608 L 594 602 L 603 598 L 675 598 L 683 602 L 692 612 L 693 618 L 694 619 L 694 630 L 691 638 L 685 645 L 679 649 L 673 650 L 672 651 L 605 651 L 595 647 L 587 639 L 583 628 Z M 562 492 L 562 496 L 560 501 L 560 517 L 561 518 L 562 526 L 567 536 L 570 540 L 583 552 L 586 553 L 588 555 L 590 555 L 594 557 L 597 557 L 598 558 L 602 558 L 603 559 L 675 559 L 676 558 L 680 558 L 681 557 L 686 556 L 697 550 L 701 546 L 702 546 L 702 545 L 708 539 L 713 531 L 713 529 L 715 526 L 715 524 L 717 520 L 717 515 L 718 514 L 717 498 L 716 497 L 714 489 L 706 476 L 694 466 L 686 462 L 684 462 L 680 460 L 676 460 L 675 459 L 604 459 L 603 460 L 598 460 L 597 461 L 589 463 L 579 469 L 568 481 Z M 583 505 L 584 504 L 585 498 L 588 493 L 593 488 L 603 483 L 631 483 L 632 482 L 640 482 L 641 483 L 675 483 L 682 486 L 686 489 L 691 495 L 694 503 L 694 515 L 691 523 L 682 532 L 675 535 L 641 535 L 640 536 L 633 536 L 632 535 L 624 535 L 623 536 L 602 535 L 594 531 L 587 524 L 584 518 Z M 563 375 L 561 385 L 560 386 L 560 401 L 561 402 L 561 406 L 562 407 L 563 413 L 571 426 L 579 434 L 585 438 L 597 443 L 602 443 L 603 444 L 674 444 L 675 443 L 680 443 L 681 442 L 687 441 L 698 435 L 708 426 L 711 422 L 716 412 L 716 410 L 718 406 L 718 402 L 719 401 L 719 386 L 718 385 L 717 378 L 715 375 L 715 373 L 709 363 L 701 355 L 694 350 L 688 347 L 682 346 L 681 345 L 677 345 L 676 344 L 603 344 L 602 345 L 594 346 L 583 351 L 579 354 L 570 363 Z M 583 390 L 584 389 L 585 383 L 588 378 L 594 372 L 599 369 L 607 368 L 608 367 L 673 367 L 674 368 L 677 368 L 682 370 L 691 378 L 692 381 L 694 383 L 694 386 L 695 387 L 695 401 L 690 411 L 686 415 L 677 420 L 673 420 L 672 421 L 669 421 L 668 420 L 649 420 L 648 421 L 608 421 L 607 420 L 600 419 L 594 416 L 587 409 L 583 398 Z M 776 338 L 770 343 L 768 347 L 768 352 L 769 353 L 769 355 L 774 360 L 787 364 L 790 366 L 807 371 L 810 373 L 812 373 L 822 377 L 825 377 L 826 378 L 828 378 L 838 382 L 841 382 L 851 386 L 854 386 L 864 390 L 871 391 L 878 394 L 881 394 L 882 395 L 888 396 L 898 400 L 904 401 L 928 412 L 938 419 L 954 434 L 965 449 L 972 462 L 972 464 L 975 469 L 975 471 L 977 475 L 977 478 L 978 479 L 980 489 L 981 490 L 982 502 L 983 503 L 983 513 L 984 514 L 984 546 L 983 547 L 983 556 L 984 557 L 984 728 L 985 729 L 985 747 L 986 748 L 986 760 L 987 761 L 988 785 L 989 786 L 990 804 L 991 805 L 991 812 L 992 813 L 992 820 L 993 821 L 993 828 L 994 829 L 994 835 L 995 836 L 995 843 L 996 844 L 998 861 L 1000 864 L 1004 867 L 1006 867 L 1007 868 L 1014 867 L 1020 862 L 1020 860 L 1021 859 L 1021 853 L 1020 852 L 1020 847 L 1019 846 L 1019 839 L 1018 838 L 1017 824 L 1016 823 L 1016 817 L 1015 816 L 1014 798 L 1013 797 L 1013 788 L 1012 787 L 1012 778 L 1011 777 L 1010 749 L 1009 748 L 1009 731 L 1008 730 L 1008 708 L 1007 707 L 1007 503 L 1006 502 L 1006 495 L 1005 494 L 1005 489 L 1004 488 L 1004 484 L 1002 479 L 1002 475 L 1001 474 L 998 463 L 996 460 L 995 455 L 987 439 L 976 423 L 962 408 L 961 408 L 951 399 L 939 391 L 921 382 L 919 382 L 916 380 L 914 380 L 907 377 L 904 377 L 894 373 L 891 373 L 884 370 L 874 368 L 873 367 L 871 367 L 867 365 L 864 365 L 857 362 L 847 360 L 831 354 L 828 354 L 827 353 L 816 350 L 813 348 L 796 343 L 785 338 Z M 497 335 L 491 335 L 488 337 L 486 337 L 478 341 L 473 342 L 465 346 L 457 348 L 454 350 L 452 350 L 451 351 L 449 351 L 448 352 L 446 352 L 445 353 L 443 353 L 442 354 L 440 354 L 439 355 L 437 355 L 436 356 L 434 356 L 433 357 L 431 357 L 409 365 L 406 365 L 393 370 L 390 370 L 386 372 L 383 372 L 379 374 L 376 374 L 375 375 L 361 379 L 339 389 L 337 391 L 334 392 L 325 398 L 317 405 L 316 405 L 301 420 L 288 438 L 279 455 L 279 457 L 277 460 L 277 462 L 275 465 L 275 467 L 272 474 L 272 477 L 271 478 L 271 481 L 269 486 L 268 497 L 267 498 L 267 510 L 266 511 L 266 713 L 265 714 L 265 734 L 264 735 L 264 749 L 263 750 L 263 762 L 262 763 L 262 772 L 261 773 L 261 784 L 260 785 L 259 804 L 258 805 L 257 819 L 256 820 L 256 827 L 255 828 L 255 835 L 254 836 L 254 844 L 253 845 L 253 852 L 252 853 L 252 859 L 254 863 L 258 867 L 260 867 L 261 868 L 266 868 L 267 867 L 269 867 L 271 866 L 275 861 L 276 851 L 277 850 L 278 835 L 279 834 L 279 827 L 280 826 L 280 819 L 281 818 L 281 811 L 282 810 L 282 803 L 283 802 L 283 793 L 284 792 L 285 773 L 286 772 L 286 759 L 287 758 L 287 745 L 288 744 L 288 726 L 289 725 L 289 688 L 290 687 L 290 663 L 289 662 L 289 652 L 290 651 L 290 505 L 291 504 L 291 497 L 292 496 L 292 492 L 293 491 L 295 480 L 296 479 L 298 471 L 301 466 L 301 464 L 309 449 L 317 438 L 334 421 L 352 409 L 358 406 L 360 406 L 365 403 L 367 403 L 386 396 L 393 395 L 396 393 L 399 393 L 406 390 L 409 390 L 416 387 L 419 387 L 420 386 L 455 375 L 458 373 L 469 370 L 472 368 L 477 367 L 480 365 L 490 362 L 501 357 L 506 351 L 506 343 L 501 337 Z M 561 268 L 561 272 L 560 273 L 560 287 L 561 288 L 561 292 L 562 293 L 563 298 L 567 306 L 579 319 L 585 323 L 593 327 L 602 328 L 603 329 L 677 329 L 678 328 L 686 327 L 698 321 L 709 311 L 717 297 L 718 291 L 719 290 L 719 285 L 720 284 L 719 269 L 713 255 L 708 248 L 703 243 L 696 238 L 688 234 L 686 234 L 682 232 L 677 232 L 676 231 L 605 231 L 604 232 L 595 233 L 594 234 L 589 235 L 579 241 L 570 250 L 564 259 L 564 261 Z M 583 277 L 584 276 L 584 272 L 587 266 L 595 258 L 602 255 L 607 255 L 608 254 L 675 254 L 683 257 L 692 265 L 696 275 L 696 285 L 695 286 L 695 289 L 691 296 L 687 300 L 681 304 L 679 304 L 675 306 L 605 306 L 595 302 L 587 294 L 584 288 Z" fill="#6d6661" fill-rule="evenodd"/>
  <path d="M 634 957 L 629 960 L 626 966 L 626 1033 L 627 1034 L 627 1036 L 631 1040 L 633 1041 L 641 1041 L 647 1036 L 647 1034 L 648 1033 L 648 966 L 647 965 L 647 963 L 644 959 L 640 957 Z M 710 928 L 704 935 L 704 942 L 705 944 L 756 994 L 760 996 L 765 996 L 769 994 L 772 991 L 774 986 L 774 983 L 772 978 L 721 929 L 716 927 Z M 565 929 L 561 927 L 556 927 L 552 929 L 501 979 L 500 987 L 501 988 L 501 990 L 506 995 L 513 996 L 518 994 L 564 948 L 568 945 L 570 940 L 570 937 L 568 932 Z M 731 862 L 731 871 L 735 876 L 739 878 L 802 878 L 803 877 L 805 877 L 811 870 L 811 863 L 810 861 L 804 856 L 795 856 L 794 855 L 743 855 L 742 856 L 737 856 L 735 857 Z M 463 862 L 463 871 L 464 873 L 467 876 L 472 878 L 534 878 L 535 877 L 537 877 L 543 870 L 543 863 L 540 858 L 537 856 L 534 856 L 533 855 L 474 855 L 473 856 L 469 856 L 466 858 Z M 631 815 L 630 816 L 622 817 L 619 819 L 617 819 L 613 821 L 606 826 L 598 835 L 593 844 L 593 846 L 591 850 L 591 853 L 590 854 L 590 872 L 591 873 L 591 876 L 595 886 L 599 892 L 608 901 L 614 905 L 624 909 L 634 910 L 635 911 L 640 911 L 641 910 L 650 909 L 658 906 L 667 900 L 673 894 L 678 887 L 682 878 L 683 870 L 684 869 L 684 857 L 683 856 L 682 848 L 679 841 L 673 832 L 667 826 L 658 820 L 651 817 L 643 816 L 642 815 Z" fill="#d27d73" fill-rule="evenodd"/>
</svg>