<svg xmlns="http://www.w3.org/2000/svg" width="1254" height="1254" viewBox="0 0 1254 1254" fill="none">
  <path d="M 544 898 L 544 903 L 543 904 L 543 906 L 547 906 L 548 905 L 554 906 L 556 907 L 557 909 L 561 912 L 561 913 L 563 913 L 563 911 L 561 910 L 561 902 L 560 900 L 551 899 L 550 898 Z M 575 880 L 572 880 L 566 883 L 566 887 L 564 888 L 564 894 L 565 894 L 566 896 L 576 896 L 576 888 L 577 887 L 579 887 L 579 885 L 577 885 L 576 884 Z M 527 883 L 527 891 L 530 893 L 531 896 L 543 896 L 544 889 L 538 886 L 538 884 L 536 880 L 534 880 L 532 882 Z M 581 830 L 582 841 L 586 841 L 586 839 L 585 838 L 585 831 L 584 830 Z M 557 720 L 557 723 L 555 728 L 555 732 L 554 733 L 554 746 L 555 747 L 555 750 L 556 751 L 558 759 L 562 766 L 562 768 L 571 777 L 571 778 L 575 780 L 576 782 L 579 783 L 583 786 L 585 786 L 592 789 L 597 789 L 599 791 L 601 791 L 602 790 L 615 790 L 616 791 L 618 791 L 619 790 L 628 790 L 629 791 L 638 791 L 639 790 L 647 790 L 648 791 L 669 791 L 670 789 L 680 788 L 683 786 L 687 785 L 700 776 L 700 774 L 705 769 L 706 766 L 708 764 L 711 758 L 712 752 L 713 751 L 713 745 L 714 744 L 714 730 L 713 729 L 713 725 L 712 724 L 711 719 L 707 711 L 695 698 L 695 697 L 693 697 L 688 693 L 676 688 L 654 688 L 653 687 L 627 687 L 626 688 L 619 688 L 618 687 L 608 687 L 607 685 L 605 685 L 604 687 L 595 688 L 594 689 L 591 689 L 590 690 L 585 691 L 582 693 L 579 693 L 577 696 L 574 697 L 574 698 L 566 705 L 561 712 L 559 716 L 559 718 Z M 578 733 L 579 732 L 580 727 L 583 725 L 583 723 L 590 716 L 596 713 L 604 713 L 605 712 L 608 712 L 609 713 L 612 713 L 613 712 L 616 712 L 617 713 L 634 713 L 635 712 L 642 712 L 643 713 L 645 713 L 646 712 L 653 712 L 654 713 L 670 713 L 678 716 L 685 723 L 688 728 L 688 730 L 690 734 L 690 743 L 689 744 L 689 748 L 687 750 L 686 753 L 678 761 L 674 763 L 672 763 L 669 765 L 601 765 L 600 764 L 595 764 L 588 760 L 584 756 L 583 753 L 581 752 L 578 744 Z M 408 579 L 399 579 L 393 584 L 393 586 L 392 587 L 392 596 L 391 597 L 391 599 L 392 600 L 392 616 L 393 617 L 392 627 L 394 629 L 394 653 L 395 654 L 396 723 L 395 724 L 395 732 L 394 733 L 394 736 L 395 737 L 395 747 L 394 748 L 394 758 L 393 759 L 393 775 L 392 776 L 392 785 L 391 786 L 391 790 L 390 791 L 389 810 L 388 811 L 388 817 L 387 818 L 387 823 L 386 824 L 386 829 L 385 830 L 384 845 L 383 846 L 382 858 L 381 859 L 381 863 L 380 864 L 380 867 L 382 872 L 388 877 L 397 877 L 404 873 L 404 871 L 406 869 L 406 861 L 408 856 L 408 851 L 409 850 L 409 845 L 410 844 L 411 828 L 413 827 L 414 806 L 415 805 L 415 801 L 416 800 L 416 790 L 417 789 L 417 775 L 418 774 L 418 768 L 419 767 L 419 748 L 420 747 L 420 737 L 421 736 L 421 677 L 420 676 L 419 615 L 418 614 L 417 589 L 416 588 L 416 585 L 415 583 Z M 859 578 L 858 579 L 856 579 L 851 583 L 848 590 L 848 608 L 847 609 L 847 621 L 846 622 L 846 631 L 845 632 L 845 657 L 844 658 L 844 669 L 843 670 L 843 676 L 844 677 L 844 694 L 843 695 L 843 713 L 844 714 L 844 749 L 845 750 L 846 780 L 847 781 L 847 787 L 848 788 L 849 809 L 850 810 L 850 818 L 851 819 L 852 830 L 853 831 L 853 838 L 854 839 L 854 847 L 855 848 L 857 868 L 859 872 L 862 875 L 866 877 L 874 877 L 881 872 L 881 870 L 882 869 L 882 855 L 881 854 L 880 841 L 878 836 L 877 819 L 876 818 L 876 810 L 875 809 L 875 804 L 874 803 L 875 793 L 873 792 L 873 784 L 872 783 L 873 772 L 871 771 L 871 757 L 870 756 L 871 745 L 869 743 L 869 731 L 870 730 L 870 724 L 869 723 L 869 713 L 868 712 L 868 695 L 869 694 L 869 659 L 872 653 L 872 648 L 870 647 L 870 639 L 871 638 L 871 623 L 872 622 L 872 613 L 873 612 L 873 595 L 874 594 L 874 589 L 872 584 L 868 580 L 864 578 Z M 707 593 L 701 586 L 701 584 L 699 584 L 698 582 L 696 582 L 692 579 L 690 576 L 677 570 L 666 570 L 665 569 L 663 569 L 662 570 L 654 570 L 653 569 L 643 569 L 642 568 L 626 569 L 625 570 L 617 570 L 616 569 L 599 569 L 595 571 L 588 572 L 581 576 L 577 577 L 567 586 L 566 586 L 563 592 L 561 593 L 558 599 L 557 605 L 555 609 L 555 613 L 554 614 L 554 629 L 555 630 L 555 634 L 559 642 L 559 644 L 561 646 L 562 650 L 564 653 L 574 662 L 578 664 L 579 666 L 581 666 L 588 670 L 596 671 L 597 672 L 644 672 L 645 673 L 651 673 L 652 672 L 671 672 L 675 670 L 681 669 L 684 667 L 686 667 L 688 665 L 692 664 L 696 660 L 697 660 L 701 655 L 702 655 L 703 652 L 705 651 L 707 648 L 707 646 L 710 642 L 711 636 L 713 632 L 713 628 L 714 627 L 714 613 L 713 612 L 712 605 L 710 602 L 710 599 L 708 597 Z M 578 618 L 579 617 L 579 612 L 581 610 L 582 606 L 589 599 L 595 596 L 603 596 L 605 594 L 615 594 L 616 595 L 625 595 L 626 596 L 652 596 L 653 595 L 669 595 L 670 596 L 674 596 L 678 598 L 687 608 L 689 613 L 689 616 L 690 617 L 690 627 L 689 628 L 689 631 L 687 633 L 686 636 L 684 637 L 684 638 L 680 642 L 675 645 L 672 645 L 671 647 L 668 647 L 667 646 L 654 646 L 653 647 L 635 647 L 634 646 L 630 646 L 629 647 L 623 647 L 622 646 L 617 646 L 616 647 L 600 647 L 599 646 L 595 646 L 585 639 L 579 629 L 579 627 L 578 626 Z M 556 486 L 556 489 L 555 490 L 555 497 L 554 498 L 554 509 L 555 510 L 555 516 L 561 530 L 566 537 L 571 542 L 578 547 L 588 552 L 597 553 L 598 554 L 610 554 L 611 555 L 622 555 L 623 554 L 631 554 L 632 555 L 657 555 L 658 554 L 669 554 L 670 553 L 674 553 L 675 552 L 681 551 L 693 545 L 693 544 L 698 541 L 703 534 L 705 533 L 705 531 L 710 524 L 710 521 L 712 519 L 712 515 L 714 510 L 714 494 L 712 490 L 711 483 L 709 481 L 709 479 L 704 471 L 693 460 L 691 459 L 690 457 L 687 457 L 682 454 L 680 454 L 676 452 L 672 452 L 670 450 L 666 450 L 665 451 L 645 451 L 644 450 L 636 450 L 635 451 L 607 451 L 606 450 L 599 450 L 597 452 L 588 453 L 582 456 L 580 458 L 578 458 L 574 461 L 563 472 Z M 578 500 L 579 499 L 579 494 L 581 492 L 581 490 L 583 487 L 589 481 L 599 476 L 667 476 L 668 477 L 673 477 L 679 480 L 686 487 L 690 497 L 690 507 L 689 508 L 689 512 L 687 513 L 687 516 L 685 519 L 680 524 L 678 524 L 672 528 L 667 528 L 666 529 L 659 529 L 658 528 L 654 528 L 653 529 L 646 529 L 645 528 L 643 528 L 642 529 L 620 529 L 619 528 L 617 528 L 616 529 L 607 529 L 606 528 L 603 528 L 602 529 L 599 529 L 590 525 L 582 517 L 579 511 Z M 555 371 L 555 374 L 554 375 L 554 390 L 555 391 L 555 395 L 556 396 L 556 399 L 557 400 L 558 405 L 562 413 L 564 414 L 564 416 L 565 416 L 567 419 L 578 429 L 580 429 L 589 434 L 593 434 L 594 435 L 598 435 L 599 436 L 607 436 L 608 437 L 610 437 L 611 436 L 616 436 L 617 435 L 634 435 L 635 436 L 647 436 L 648 437 L 654 436 L 656 438 L 659 438 L 660 436 L 669 436 L 670 435 L 680 434 L 694 426 L 703 418 L 709 410 L 709 408 L 713 400 L 714 392 L 716 391 L 716 387 L 715 386 L 715 378 L 714 377 L 713 367 L 710 362 L 709 358 L 706 355 L 706 353 L 705 353 L 704 351 L 691 339 L 689 339 L 684 336 L 682 336 L 675 333 L 671 333 L 670 332 L 646 332 L 645 331 L 638 331 L 634 333 L 617 333 L 616 332 L 608 332 L 607 331 L 605 331 L 603 333 L 594 333 L 593 334 L 587 335 L 575 342 L 565 351 L 562 355 L 562 357 L 559 360 L 559 363 Z M 578 382 L 579 381 L 579 376 L 582 369 L 589 362 L 597 358 L 600 358 L 601 357 L 666 357 L 667 358 L 673 358 L 675 360 L 679 361 L 682 365 L 686 368 L 689 373 L 689 375 L 691 379 L 691 389 L 690 390 L 690 393 L 687 397 L 687 399 L 685 400 L 685 401 L 681 405 L 672 410 L 668 410 L 667 411 L 654 411 L 653 410 L 622 411 L 621 410 L 605 410 L 604 409 L 597 410 L 589 406 L 588 404 L 584 401 L 579 392 Z M 772 326 L 766 329 L 766 331 L 763 336 L 763 341 L 764 342 L 764 344 L 766 346 L 765 352 L 767 352 L 768 350 L 771 350 L 772 351 L 780 353 L 783 355 L 785 355 L 788 357 L 815 365 L 818 367 L 821 367 L 828 370 L 831 370 L 843 375 L 846 375 L 853 378 L 856 378 L 859 380 L 863 380 L 869 383 L 877 384 L 884 387 L 887 387 L 888 388 L 899 391 L 902 393 L 904 393 L 908 395 L 911 395 L 913 397 L 915 397 L 921 400 L 930 406 L 932 406 L 935 409 L 938 410 L 942 414 L 943 414 L 959 431 L 964 438 L 965 441 L 968 444 L 974 455 L 974 457 L 977 462 L 977 464 L 980 471 L 980 474 L 982 476 L 983 484 L 985 489 L 985 498 L 986 499 L 986 511 L 985 512 L 985 530 L 986 531 L 986 551 L 985 552 L 985 554 L 986 555 L 986 585 L 985 586 L 985 594 L 986 595 L 986 604 L 985 605 L 985 613 L 986 614 L 986 627 L 985 628 L 985 630 L 986 631 L 986 636 L 985 637 L 985 639 L 986 640 L 986 659 L 985 660 L 985 662 L 986 663 L 986 677 L 985 678 L 985 683 L 986 684 L 986 687 L 985 688 L 985 694 L 986 695 L 986 701 L 985 702 L 985 713 L 987 715 L 987 738 L 988 739 L 988 749 L 989 750 L 989 760 L 990 761 L 991 786 L 992 787 L 992 791 L 993 792 L 995 819 L 997 824 L 997 830 L 998 831 L 998 837 L 999 838 L 999 846 L 1000 847 L 1000 852 L 1001 853 L 1001 858 L 1002 859 L 1003 866 L 1007 870 L 1009 870 L 1010 871 L 1018 871 L 1019 870 L 1021 870 L 1024 867 L 1026 863 L 1026 845 L 1025 844 L 1025 838 L 1023 837 L 1024 830 L 1022 829 L 1022 822 L 1021 821 L 1021 815 L 1020 814 L 1021 806 L 1019 802 L 1019 793 L 1018 792 L 1018 787 L 1017 786 L 1016 765 L 1015 764 L 1015 751 L 1014 750 L 1014 740 L 1013 739 L 1013 730 L 1014 729 L 1013 713 L 1012 712 L 1012 705 L 1013 704 L 1013 691 L 1012 690 L 1012 683 L 1013 682 L 1013 610 L 1012 609 L 1012 604 L 1013 603 L 1013 576 L 1012 575 L 1012 559 L 1013 558 L 1013 550 L 1012 549 L 1012 540 L 1013 539 L 1013 537 L 1012 536 L 1012 531 L 1013 530 L 1013 504 L 1012 503 L 1011 493 L 1010 492 L 1011 486 L 1009 485 L 1009 479 L 1007 475 L 1006 467 L 1004 464 L 1004 462 L 1002 458 L 1002 455 L 999 450 L 999 448 L 994 438 L 992 436 L 992 433 L 989 431 L 986 425 L 984 423 L 984 421 L 971 407 L 971 406 L 963 398 L 962 398 L 960 395 L 951 389 L 948 385 L 946 385 L 944 383 L 940 382 L 937 379 L 935 379 L 931 377 L 930 375 L 928 375 L 923 372 L 918 371 L 915 369 L 909 368 L 906 366 L 903 366 L 896 363 L 893 363 L 892 362 L 885 361 L 881 359 L 878 359 L 877 358 L 875 358 L 873 356 L 866 355 L 856 351 L 852 351 L 848 349 L 845 349 L 843 347 L 840 347 L 839 346 L 836 346 L 826 342 L 823 342 L 822 341 L 820 341 L 818 339 L 788 330 L 783 327 L 780 327 L 779 326 Z M 492 324 L 490 324 L 489 323 L 483 324 L 477 327 L 471 328 L 469 330 L 467 330 L 464 332 L 461 332 L 459 334 L 457 334 L 453 336 L 450 336 L 447 338 L 445 338 L 438 341 L 435 341 L 430 344 L 428 344 L 421 347 L 418 347 L 403 353 L 393 355 L 390 357 L 387 357 L 365 365 L 359 366 L 356 368 L 348 370 L 345 372 L 342 372 L 330 378 L 328 380 L 324 382 L 322 382 L 321 384 L 318 385 L 306 395 L 305 395 L 298 402 L 297 402 L 289 411 L 288 411 L 288 413 L 285 415 L 285 417 L 282 419 L 281 422 L 274 432 L 263 454 L 263 457 L 262 458 L 260 466 L 258 469 L 258 473 L 256 476 L 255 486 L 253 487 L 253 489 L 254 490 L 254 495 L 253 496 L 253 500 L 252 501 L 252 504 L 253 505 L 253 511 L 252 512 L 253 549 L 251 552 L 251 554 L 252 555 L 252 567 L 253 568 L 253 585 L 251 588 L 252 604 L 253 605 L 253 622 L 251 623 L 251 627 L 252 628 L 252 639 L 253 640 L 253 645 L 252 646 L 252 648 L 253 649 L 253 658 L 251 659 L 252 677 L 253 678 L 253 694 L 251 697 L 251 699 L 252 700 L 252 716 L 251 717 L 252 722 L 251 723 L 251 737 L 250 738 L 250 755 L 249 756 L 249 765 L 248 766 L 248 777 L 247 778 L 247 786 L 246 787 L 245 802 L 244 803 L 244 812 L 243 813 L 243 819 L 242 820 L 242 824 L 241 825 L 241 832 L 240 833 L 240 839 L 239 840 L 239 849 L 238 850 L 238 864 L 239 866 L 245 871 L 254 871 L 261 865 L 261 862 L 263 858 L 264 848 L 265 847 L 265 836 L 266 835 L 266 830 L 267 829 L 267 819 L 268 818 L 269 805 L 270 804 L 270 800 L 271 799 L 271 791 L 272 790 L 272 779 L 273 778 L 274 757 L 275 756 L 275 743 L 276 742 L 276 730 L 277 729 L 277 706 L 278 705 L 278 572 L 279 571 L 279 569 L 278 568 L 278 524 L 279 523 L 283 523 L 283 516 L 279 516 L 278 515 L 278 506 L 279 505 L 284 505 L 284 496 L 280 496 L 279 495 L 279 493 L 280 492 L 280 488 L 282 487 L 282 478 L 283 477 L 283 474 L 288 463 L 289 458 L 291 456 L 294 449 L 296 447 L 301 437 L 311 426 L 311 425 L 317 419 L 318 419 L 321 415 L 341 401 L 343 401 L 361 392 L 364 392 L 367 390 L 369 390 L 373 388 L 376 388 L 377 387 L 387 385 L 394 382 L 397 382 L 430 370 L 434 370 L 437 368 L 445 366 L 450 363 L 453 363 L 454 362 L 459 361 L 467 357 L 471 357 L 472 355 L 474 355 L 487 349 L 492 348 L 497 344 L 499 340 L 499 333 L 497 330 L 497 328 L 496 328 L 495 326 Z M 555 256 L 555 260 L 554 261 L 554 272 L 555 273 L 557 283 L 559 286 L 559 289 L 565 298 L 572 305 L 579 310 L 585 313 L 587 313 L 594 316 L 599 316 L 600 317 L 611 317 L 612 318 L 616 318 L 617 317 L 621 317 L 622 318 L 624 318 L 625 317 L 643 317 L 644 318 L 653 318 L 654 317 L 670 317 L 671 316 L 678 316 L 679 315 L 682 315 L 696 307 L 702 301 L 702 300 L 709 292 L 710 288 L 712 285 L 712 282 L 714 277 L 714 257 L 713 256 L 713 252 L 710 246 L 710 244 L 704 235 L 695 226 L 683 220 L 681 220 L 678 218 L 675 218 L 674 217 L 598 217 L 597 218 L 588 219 L 580 223 L 578 225 L 576 225 L 575 227 L 574 227 L 565 236 L 564 236 L 560 243 L 559 247 L 557 249 L 557 253 Z M 579 259 L 583 252 L 587 249 L 589 246 L 594 243 L 601 242 L 602 241 L 616 241 L 617 243 L 621 243 L 622 242 L 629 242 L 630 243 L 632 243 L 635 241 L 653 241 L 654 242 L 665 242 L 666 243 L 674 242 L 678 245 L 680 245 L 685 250 L 685 251 L 687 252 L 691 263 L 691 270 L 690 271 L 690 276 L 688 280 L 686 281 L 686 283 L 678 290 L 676 290 L 672 292 L 658 292 L 657 293 L 654 293 L 650 291 L 647 291 L 646 292 L 635 292 L 634 293 L 630 293 L 629 292 L 623 292 L 622 293 L 617 293 L 616 292 L 598 292 L 589 288 L 583 282 L 583 280 L 581 279 L 579 274 Z" fill="#ffffff" fill-rule="evenodd"/>
  <path d="M 628 966 L 624 968 L 620 972 L 620 976 L 619 977 L 619 1036 L 620 1037 L 620 1048 L 621 1050 L 626 1054 L 633 1055 L 638 1053 L 641 1050 L 642 1048 L 642 1044 L 643 1043 L 643 1011 L 642 1010 L 643 977 L 642 976 L 641 971 L 637 967 L 635 966 Z M 705 936 L 701 940 L 701 942 L 700 943 L 700 950 L 703 955 L 724 976 L 725 976 L 727 979 L 752 1004 L 755 1006 L 758 1006 L 759 1007 L 767 1005 L 772 999 L 772 991 L 769 986 L 719 936 L 714 934 L 708 934 Z M 561 937 L 555 934 L 550 934 L 546 936 L 494 989 L 494 991 L 493 992 L 493 999 L 497 1005 L 502 1007 L 507 1007 L 512 1005 L 557 959 L 557 958 L 564 950 L 564 942 Z M 727 868 L 727 873 L 728 874 L 728 876 L 731 880 L 734 882 L 804 882 L 811 876 L 811 874 L 812 873 L 812 868 L 811 867 L 811 865 L 807 860 L 805 860 L 804 859 L 735 859 L 731 861 L 728 865 L 728 867 Z M 452 866 L 452 875 L 453 877 L 459 882 L 529 882 L 530 881 L 532 881 L 536 877 L 536 875 L 537 874 L 537 867 L 536 866 L 536 864 L 530 859 L 460 859 L 455 862 Z M 627 817 L 626 818 L 618 819 L 606 824 L 603 827 L 599 829 L 599 830 L 594 835 L 592 839 L 589 842 L 584 855 L 584 860 L 583 861 L 583 876 L 584 877 L 586 887 L 590 895 L 603 909 L 612 914 L 614 914 L 621 917 L 629 917 L 630 918 L 632 918 L 633 917 L 641 917 L 642 916 L 646 916 L 649 914 L 651 914 L 660 909 L 668 902 L 674 894 L 679 883 L 680 875 L 681 874 L 681 861 L 680 860 L 680 856 L 679 855 L 678 850 L 675 845 L 675 843 L 666 831 L 665 831 L 657 824 L 649 820 L 642 819 L 641 818 L 636 818 L 635 817 Z" fill="#d27d73" fill-rule="evenodd"/>
</svg>