<svg xmlns="http://www.w3.org/2000/svg" width="1254" height="1254" viewBox="0 0 1254 1254" fill="none">
  <path d="M 845 475 L 839 474 L 833 477 L 830 483 L 830 489 L 832 494 L 832 499 L 833 500 L 834 510 L 835 511 L 835 521 L 836 522 L 836 560 L 837 561 L 837 566 L 838 567 L 838 570 L 839 571 L 842 582 L 849 596 L 851 598 L 852 601 L 854 603 L 859 613 L 863 618 L 873 636 L 877 641 L 878 644 L 880 646 L 882 651 L 884 653 L 890 664 L 890 666 L 893 672 L 893 684 L 891 688 L 882 696 L 872 701 L 870 701 L 863 705 L 858 706 L 853 709 L 846 716 L 845 719 L 843 721 L 842 728 L 841 729 L 841 741 L 842 742 L 843 751 L 845 756 L 845 764 L 844 765 L 839 782 L 831 786 L 828 792 L 828 800 L 831 806 L 832 820 L 833 821 L 833 831 L 834 832 L 834 844 L 833 845 L 833 848 L 829 858 L 820 867 L 814 870 L 812 872 L 810 872 L 807 874 L 799 875 L 798 876 L 721 876 L 720 877 L 714 878 L 705 883 L 697 892 L 693 902 L 693 907 L 692 908 L 692 979 L 694 984 L 697 987 L 699 987 L 700 988 L 707 988 L 709 987 L 714 981 L 714 908 L 716 903 L 720 899 L 722 899 L 723 898 L 801 898 L 802 897 L 807 897 L 808 896 L 819 893 L 829 888 L 833 885 L 847 870 L 852 860 L 852 857 L 854 853 L 854 848 L 855 847 L 854 817 L 853 816 L 853 812 L 852 811 L 852 806 L 851 805 L 851 803 L 854 800 L 859 791 L 861 781 L 863 778 L 863 776 L 865 772 L 865 769 L 866 768 L 866 752 L 865 751 L 865 747 L 864 746 L 864 742 L 863 741 L 863 733 L 864 732 L 864 729 L 870 725 L 875 724 L 880 721 L 882 721 L 890 717 L 899 711 L 907 703 L 911 697 L 914 689 L 915 673 L 914 672 L 914 668 L 913 667 L 913 664 L 912 663 L 911 658 L 904 644 L 899 637 L 897 632 L 895 630 L 888 617 L 884 612 L 883 609 L 881 607 L 880 604 L 876 599 L 874 594 L 869 587 L 866 580 L 864 578 L 864 576 L 859 566 L 858 556 L 857 555 L 857 542 L 858 541 L 858 539 L 857 538 L 857 515 L 856 514 L 856 508 L 855 507 L 855 500 L 854 499 L 854 494 L 853 493 L 853 488 L 852 487 L 851 481 L 850 479 Z M 692 290 L 690 290 L 687 288 L 682 287 L 674 283 L 671 283 L 661 279 L 658 279 L 657 278 L 654 278 L 649 276 L 645 276 L 644 275 L 640 275 L 639 274 L 634 274 L 633 273 L 618 272 L 617 271 L 572 271 L 571 272 L 553 273 L 552 274 L 547 274 L 546 275 L 541 275 L 536 277 L 532 277 L 531 278 L 524 279 L 520 281 L 517 281 L 516 282 L 499 287 L 486 293 L 484 293 L 462 304 L 433 323 L 415 339 L 414 339 L 396 357 L 396 358 L 384 371 L 376 383 L 373 386 L 367 395 L 366 398 L 363 401 L 345 437 L 345 439 L 341 447 L 341 449 L 338 455 L 337 461 L 333 471 L 333 474 L 332 475 L 332 478 L 331 479 L 331 482 L 329 487 L 328 496 L 327 497 L 326 508 L 325 509 L 324 531 L 323 532 L 323 563 L 324 564 L 324 575 L 325 576 L 326 591 L 327 592 L 327 597 L 328 598 L 328 603 L 329 604 L 329 608 L 331 613 L 331 617 L 333 621 L 333 624 L 336 632 L 336 635 L 337 636 L 340 647 L 342 650 L 343 655 L 346 660 L 346 662 L 349 667 L 349 669 L 367 703 L 373 711 L 378 720 L 381 723 L 383 727 L 401 751 L 409 768 L 409 770 L 411 774 L 411 777 L 413 781 L 414 789 L 415 790 L 415 795 L 416 796 L 416 801 L 417 802 L 417 808 L 418 809 L 419 828 L 420 829 L 420 856 L 419 857 L 418 884 L 417 885 L 417 892 L 416 893 L 416 899 L 415 900 L 415 906 L 414 907 L 414 911 L 413 912 L 413 916 L 412 917 L 412 922 L 410 927 L 409 935 L 407 939 L 407 943 L 406 944 L 405 951 L 404 952 L 404 954 L 396 976 L 397 983 L 399 986 L 403 988 L 411 988 L 416 984 L 418 980 L 419 975 L 421 972 L 421 969 L 425 959 L 425 956 L 427 952 L 427 949 L 428 948 L 428 945 L 429 944 L 429 941 L 431 936 L 431 932 L 432 931 L 432 927 L 433 926 L 433 922 L 434 921 L 434 917 L 435 916 L 435 912 L 436 911 L 436 905 L 437 904 L 437 898 L 438 897 L 438 889 L 439 888 L 439 882 L 440 881 L 440 865 L 441 864 L 441 826 L 440 825 L 440 813 L 439 812 L 439 804 L 438 803 L 438 797 L 437 796 L 436 786 L 435 785 L 434 777 L 431 769 L 431 766 L 430 765 L 428 757 L 426 754 L 426 752 L 418 737 L 400 713 L 388 695 L 379 678 L 377 676 L 375 672 L 375 670 L 373 668 L 371 664 L 371 662 L 367 655 L 367 653 L 363 645 L 362 640 L 360 637 L 360 635 L 358 631 L 358 628 L 356 625 L 356 622 L 354 618 L 352 607 L 351 606 L 350 596 L 349 595 L 349 590 L 348 589 L 348 582 L 347 581 L 347 574 L 346 573 L 346 559 L 345 558 L 345 534 L 346 533 L 346 520 L 347 519 L 347 511 L 348 510 L 348 504 L 349 503 L 349 499 L 350 498 L 350 493 L 351 492 L 354 477 L 357 470 L 357 467 L 359 464 L 364 448 L 378 419 L 380 417 L 387 404 L 402 384 L 408 378 L 408 377 L 433 352 L 434 352 L 440 346 L 455 336 L 458 333 L 464 329 L 469 327 L 471 325 L 476 323 L 478 321 L 480 321 L 493 314 L 495 314 L 505 309 L 507 309 L 523 303 L 526 303 L 530 301 L 533 301 L 538 299 L 542 299 L 543 298 L 547 298 L 548 297 L 552 297 L 553 296 L 567 295 L 568 294 L 578 294 L 579 293 L 609 293 L 610 294 L 620 294 L 621 295 L 626 295 L 627 296 L 633 296 L 634 297 L 638 297 L 639 298 L 644 298 L 645 299 L 648 299 L 652 301 L 655 301 L 659 303 L 662 303 L 663 304 L 671 306 L 700 319 L 702 321 L 707 323 L 727 336 L 743 349 L 751 349 L 757 344 L 758 342 L 758 335 L 756 331 L 751 326 L 726 308 L 723 307 L 716 302 L 709 299 L 707 297 L 699 293 L 697 293 Z" fill="#6d6661" fill-rule="evenodd"/>
  <path d="M 736 489 L 732 487 L 725 487 L 721 489 L 669 542 L 667 546 L 667 553 L 672 559 L 674 560 L 681 560 L 686 557 L 686 556 L 689 554 L 690 552 L 701 541 L 702 541 L 703 539 L 738 504 L 739 502 L 739 493 Z M 899 413 L 899 421 L 900 423 L 906 428 L 979 428 L 980 427 L 982 427 L 985 424 L 987 420 L 987 415 L 986 414 L 986 412 L 984 409 L 978 406 L 907 406 L 906 407 L 904 407 Z M 626 415 L 626 419 L 628 424 L 631 427 L 633 427 L 634 428 L 707 428 L 711 426 L 714 421 L 714 412 L 709 407 L 707 407 L 706 406 L 634 406 L 627 412 L 627 414 Z M 802 363 L 801 364 L 792 365 L 779 371 L 765 384 L 756 402 L 756 406 L 755 407 L 755 427 L 756 428 L 760 441 L 768 452 L 777 460 L 788 466 L 794 467 L 795 468 L 799 468 L 800 469 L 816 469 L 817 468 L 821 468 L 822 467 L 827 466 L 835 462 L 843 455 L 844 455 L 850 448 L 854 442 L 854 440 L 856 438 L 856 436 L 859 429 L 859 425 L 860 424 L 860 408 L 859 407 L 859 403 L 858 402 L 857 397 L 853 389 L 849 383 L 839 373 L 823 365 L 814 364 L 813 363 Z M 939 282 L 934 280 L 930 280 L 925 282 L 919 288 L 919 289 L 917 290 L 876 331 L 873 336 L 873 343 L 877 349 L 879 350 L 888 350 L 890 349 L 942 297 L 943 295 L 943 288 Z M 804 220 L 800 223 L 798 227 L 798 233 L 797 234 L 797 243 L 798 244 L 798 310 L 799 312 L 804 316 L 812 316 L 818 311 L 818 309 L 819 308 L 819 228 L 818 227 L 818 225 L 814 221 L 812 220 Z" fill="#d27d73" fill-rule="evenodd"/>
</svg>