<svg xmlns="http://www.w3.org/2000/svg" width="1254" height="1254" viewBox="0 0 1254 1254" fill="none">
  <path d="M 851 460 L 846 460 L 842 462 L 838 466 L 838 468 L 837 469 L 837 476 L 838 477 L 838 481 L 840 486 L 840 491 L 841 492 L 842 502 L 843 503 L 843 513 L 844 514 L 844 557 L 845 558 L 845 563 L 846 564 L 846 567 L 847 568 L 850 579 L 858 595 L 860 597 L 870 615 L 874 620 L 875 623 L 877 625 L 887 643 L 891 648 L 895 656 L 899 661 L 900 665 L 904 671 L 904 673 L 906 677 L 906 680 L 907 681 L 906 691 L 903 697 L 892 706 L 880 712 L 878 712 L 875 714 L 868 716 L 859 722 L 852 731 L 852 733 L 850 736 L 850 739 L 849 740 L 849 755 L 850 756 L 851 765 L 853 770 L 853 781 L 851 785 L 851 788 L 850 789 L 847 800 L 844 802 L 840 803 L 837 806 L 834 813 L 834 818 L 836 822 L 837 830 L 838 831 L 839 843 L 840 844 L 840 853 L 841 854 L 841 865 L 840 866 L 840 871 L 839 872 L 838 877 L 834 884 L 823 894 L 813 899 L 810 899 L 809 900 L 806 900 L 801 902 L 743 901 L 742 902 L 714 902 L 713 903 L 709 903 L 698 909 L 698 910 L 694 913 L 689 920 L 685 930 L 685 935 L 684 936 L 684 1020 L 686 1024 L 689 1027 L 694 1029 L 697 1029 L 702 1027 L 705 1024 L 707 1020 L 707 936 L 709 931 L 713 927 L 718 925 L 804 925 L 805 924 L 811 924 L 815 922 L 821 921 L 834 915 L 840 911 L 851 900 L 859 886 L 859 884 L 861 880 L 861 877 L 862 876 L 862 871 L 863 870 L 863 847 L 862 846 L 862 840 L 861 839 L 859 822 L 866 814 L 866 812 L 869 805 L 869 802 L 871 799 L 871 796 L 873 792 L 873 789 L 875 785 L 875 781 L 876 780 L 876 770 L 875 769 L 875 764 L 874 763 L 873 754 L 872 753 L 872 745 L 873 744 L 873 742 L 876 738 L 880 736 L 882 736 L 885 734 L 890 733 L 897 729 L 899 729 L 908 724 L 913 719 L 914 719 L 919 714 L 924 707 L 927 700 L 928 694 L 929 693 L 929 678 L 928 677 L 928 671 L 927 670 L 926 665 L 924 662 L 924 660 L 921 654 L 919 652 L 916 645 L 914 643 L 912 638 L 905 628 L 903 623 L 899 618 L 898 615 L 886 597 L 880 585 L 875 578 L 869 565 L 868 558 L 867 557 L 867 518 L 866 517 L 866 507 L 865 506 L 865 498 L 864 497 L 863 485 L 862 484 L 861 474 L 860 473 L 859 467 L 854 461 L 852 461 Z M 689 258 L 687 258 L 684 256 L 674 253 L 663 248 L 660 248 L 653 245 L 649 245 L 648 244 L 645 244 L 640 242 L 636 242 L 635 241 L 630 241 L 629 240 L 624 240 L 623 239 L 617 239 L 616 238 L 608 238 L 607 237 L 574 236 L 573 237 L 560 237 L 559 238 L 551 238 L 550 239 L 536 240 L 535 241 L 525 242 L 524 243 L 521 243 L 516 245 L 512 245 L 508 247 L 501 248 L 500 249 L 480 255 L 477 257 L 475 257 L 464 262 L 462 262 L 435 276 L 412 291 L 399 302 L 398 302 L 393 307 L 392 307 L 385 314 L 384 314 L 370 328 L 370 329 L 361 338 L 357 344 L 352 349 L 332 378 L 331 381 L 326 388 L 322 397 L 320 399 L 320 401 L 314 412 L 314 414 L 311 419 L 311 421 L 307 428 L 307 430 L 305 433 L 304 439 L 302 442 L 302 445 L 297 458 L 295 469 L 293 473 L 293 477 L 292 478 L 291 487 L 290 488 L 290 492 L 289 493 L 289 498 L 288 499 L 287 516 L 286 517 L 286 532 L 285 533 L 286 569 L 287 570 L 287 579 L 288 580 L 288 586 L 289 587 L 289 592 L 290 593 L 290 599 L 291 600 L 292 610 L 293 611 L 296 626 L 298 630 L 298 633 L 299 634 L 305 654 L 307 657 L 307 659 L 309 662 L 311 669 L 315 676 L 315 678 L 324 696 L 326 698 L 329 705 L 331 707 L 335 715 L 351 739 L 370 764 L 372 769 L 376 775 L 376 777 L 378 780 L 378 782 L 380 785 L 380 787 L 382 791 L 382 794 L 383 795 L 383 798 L 384 799 L 384 802 L 386 807 L 386 811 L 387 812 L 387 816 L 388 817 L 388 822 L 389 823 L 389 828 L 390 829 L 390 836 L 391 837 L 391 846 L 392 847 L 392 888 L 391 889 L 391 902 L 390 903 L 390 913 L 389 914 L 387 934 L 386 935 L 385 945 L 384 946 L 383 955 L 381 960 L 381 964 L 379 968 L 378 976 L 377 977 L 377 979 L 375 983 L 375 986 L 374 987 L 374 989 L 373 990 L 373 992 L 365 1014 L 365 1021 L 367 1025 L 371 1028 L 373 1028 L 374 1029 L 381 1028 L 384 1026 L 387 1022 L 387 1020 L 390 1014 L 390 1012 L 393 1005 L 393 1002 L 398 989 L 398 986 L 400 982 L 400 979 L 402 974 L 402 970 L 404 965 L 404 961 L 406 956 L 407 947 L 408 946 L 408 941 L 409 940 L 409 935 L 410 934 L 410 929 L 411 928 L 411 921 L 412 920 L 412 913 L 413 912 L 414 887 L 415 886 L 415 852 L 414 851 L 414 838 L 413 837 L 413 830 L 412 829 L 411 814 L 410 813 L 409 804 L 408 803 L 408 800 L 407 799 L 404 784 L 403 783 L 400 772 L 398 769 L 398 767 L 390 752 L 375 732 L 373 728 L 370 725 L 354 701 L 348 689 L 346 687 L 341 676 L 339 674 L 335 666 L 335 664 L 332 659 L 332 657 L 329 652 L 327 644 L 322 633 L 321 627 L 319 623 L 319 620 L 317 616 L 315 605 L 314 604 L 314 599 L 313 598 L 313 593 L 312 592 L 312 586 L 311 585 L 311 579 L 310 578 L 310 573 L 309 572 L 309 556 L 308 555 L 308 532 L 309 531 L 309 518 L 310 517 L 310 508 L 311 507 L 312 494 L 313 493 L 313 489 L 314 488 L 314 485 L 316 480 L 316 476 L 317 475 L 319 465 L 322 458 L 322 455 L 323 454 L 325 446 L 327 443 L 328 438 L 330 435 L 330 433 L 334 426 L 334 424 L 338 417 L 338 415 L 340 413 L 347 398 L 349 396 L 350 393 L 361 376 L 365 372 L 367 368 L 380 353 L 380 352 L 404 328 L 405 328 L 421 314 L 431 308 L 434 305 L 443 299 L 448 297 L 450 295 L 457 292 L 459 290 L 461 290 L 463 288 L 465 288 L 474 283 L 476 283 L 486 278 L 488 278 L 494 275 L 497 275 L 504 272 L 507 272 L 514 269 L 522 268 L 523 267 L 526 267 L 531 265 L 535 265 L 536 264 L 540 264 L 541 263 L 556 262 L 557 261 L 571 261 L 572 260 L 593 260 L 594 261 L 606 261 L 607 262 L 615 262 L 616 263 L 621 263 L 622 264 L 632 265 L 633 266 L 645 268 L 649 270 L 652 270 L 653 271 L 667 275 L 693 287 L 695 289 L 700 291 L 702 293 L 711 298 L 714 301 L 721 305 L 733 314 L 737 318 L 741 320 L 748 320 L 752 318 L 755 314 L 756 308 L 755 307 L 755 304 L 751 298 L 745 294 L 740 289 L 736 287 L 733 284 L 718 274 L 715 273 L 705 266 Z" fill="#ffffff" fill-rule="evenodd"/>
  <path d="M 731 476 L 726 474 L 721 474 L 716 476 L 657 536 L 655 540 L 655 548 L 660 554 L 665 556 L 668 556 L 673 554 L 689 538 L 690 538 L 690 537 L 733 494 L 735 490 L 735 482 Z M 913 392 L 913 401 L 914 403 L 918 407 L 923 409 L 1001 409 L 1002 408 L 1005 408 L 1010 404 L 1012 399 L 1012 394 L 1011 393 L 1011 391 L 1008 387 L 1004 385 L 920 385 L 918 386 Z M 610 394 L 610 400 L 612 404 L 615 407 L 620 408 L 621 409 L 697 409 L 698 408 L 701 408 L 706 404 L 708 399 L 708 394 L 706 389 L 700 385 L 618 385 L 612 389 Z M 802 336 L 801 337 L 797 337 L 796 338 L 788 340 L 782 343 L 772 350 L 763 360 L 760 366 L 758 368 L 755 375 L 755 378 L 753 383 L 753 387 L 752 388 L 752 401 L 753 402 L 754 412 L 758 420 L 758 422 L 767 435 L 776 443 L 786 449 L 788 449 L 795 452 L 803 453 L 804 454 L 818 454 L 819 453 L 827 452 L 838 448 L 847 442 L 857 432 L 859 428 L 862 425 L 868 410 L 869 399 L 870 398 L 870 391 L 869 390 L 869 384 L 868 383 L 868 379 L 867 378 L 866 373 L 858 359 L 851 351 L 837 341 L 835 341 L 829 338 L 826 338 L 821 336 Z M 957 247 L 952 245 L 947 245 L 942 247 L 885 305 L 884 307 L 884 315 L 886 319 L 889 322 L 891 323 L 899 323 L 900 322 L 902 322 L 960 264 L 961 259 L 962 258 L 962 255 L 960 250 Z M 808 174 L 803 177 L 800 182 L 800 276 L 802 280 L 806 283 L 813 284 L 814 283 L 817 283 L 823 276 L 823 182 L 819 176 L 815 174 Z" fill="#d27d73" fill-rule="evenodd"/>
</svg>