<svg xmlns="http://www.w3.org/2000/svg" width="1254" height="1254" viewBox="0 0 1254 1254" fill="none">
  <path d="M 529 187 L 500 201 L 498 203 L 490 207 L 475 217 L 471 221 L 460 229 L 449 240 L 448 240 L 432 257 L 432 258 L 423 268 L 413 282 L 412 285 L 402 300 L 396 312 L 396 314 L 391 323 L 391 325 L 387 333 L 387 335 L 382 348 L 381 355 L 378 363 L 377 372 L 376 373 L 375 384 L 374 385 L 374 393 L 373 394 L 373 434 L 374 435 L 374 445 L 375 446 L 375 452 L 376 453 L 376 459 L 377 460 L 378 469 L 379 470 L 382 485 L 384 489 L 384 492 L 385 493 L 387 501 L 389 504 L 391 512 L 394 517 L 394 519 L 397 524 L 397 526 L 400 530 L 407 545 L 409 547 L 410 550 L 414 555 L 417 561 L 422 567 L 423 570 L 453 608 L 460 622 L 460 624 L 463 631 L 463 635 L 464 636 L 464 640 L 465 641 L 465 648 L 466 649 L 466 720 L 465 721 L 465 734 L 464 735 L 463 755 L 462 756 L 460 776 L 459 777 L 459 782 L 458 783 L 459 788 L 461 791 L 466 794 L 473 794 L 474 793 L 476 793 L 480 789 L 481 784 L 482 783 L 483 770 L 484 769 L 484 763 L 485 762 L 485 756 L 486 755 L 486 745 L 487 744 L 487 734 L 488 733 L 488 715 L 489 714 L 489 660 L 488 659 L 488 641 L 487 640 L 487 634 L 486 633 L 486 629 L 485 628 L 484 621 L 483 620 L 482 615 L 480 612 L 480 610 L 475 600 L 467 588 L 445 561 L 426 532 L 411 500 L 410 495 L 408 492 L 408 490 L 406 486 L 406 483 L 404 479 L 404 476 L 403 475 L 403 472 L 401 467 L 401 463 L 400 462 L 400 458 L 399 457 L 399 452 L 398 451 L 398 446 L 397 445 L 397 435 L 396 434 L 396 398 L 397 397 L 397 388 L 398 387 L 398 380 L 399 379 L 401 365 L 403 361 L 405 351 L 406 350 L 407 345 L 409 342 L 410 337 L 412 334 L 412 332 L 417 323 L 417 321 L 419 317 L 421 315 L 425 306 L 429 301 L 430 298 L 440 285 L 442 281 L 454 268 L 454 267 L 471 250 L 472 250 L 483 240 L 487 238 L 500 228 L 515 220 L 517 218 L 534 210 L 536 210 L 544 206 L 546 206 L 562 200 L 565 200 L 569 198 L 572 198 L 577 196 L 581 196 L 582 195 L 587 195 L 588 194 L 593 194 L 594 193 L 600 193 L 601 192 L 608 192 L 609 191 L 629 191 L 630 190 L 652 190 L 653 191 L 666 191 L 667 192 L 673 192 L 674 193 L 681 193 L 682 194 L 693 195 L 694 196 L 697 196 L 698 197 L 713 200 L 717 202 L 720 202 L 721 203 L 726 204 L 729 206 L 734 207 L 737 209 L 739 209 L 760 219 L 762 221 L 765 222 L 767 224 L 770 225 L 791 240 L 798 247 L 799 247 L 820 269 L 820 270 L 827 278 L 835 290 L 836 293 L 840 298 L 851 320 L 851 322 L 855 330 L 855 332 L 861 348 L 861 351 L 862 352 L 862 355 L 864 360 L 864 364 L 865 365 L 865 369 L 866 370 L 866 374 L 867 375 L 868 389 L 869 390 L 869 397 L 870 398 L 870 416 L 871 417 L 871 422 L 872 423 L 872 426 L 874 429 L 874 431 L 876 433 L 878 438 L 881 441 L 883 445 L 912 483 L 920 495 L 933 511 L 937 518 L 937 527 L 935 531 L 931 535 L 920 541 L 918 541 L 915 543 L 913 543 L 906 546 L 900 551 L 896 557 L 895 562 L 894 563 L 894 582 L 896 586 L 896 590 L 890 593 L 877 593 L 873 595 L 870 598 L 868 602 L 868 608 L 874 615 L 876 616 L 884 616 L 890 621 L 890 624 L 883 630 L 878 639 L 878 643 L 877 644 L 877 652 L 878 653 L 878 659 L 879 660 L 880 678 L 879 679 L 878 689 L 873 699 L 861 710 L 855 713 L 852 713 L 847 715 L 841 715 L 840 716 L 755 716 L 754 717 L 748 718 L 736 724 L 727 733 L 726 736 L 723 740 L 723 742 L 721 746 L 721 749 L 720 750 L 720 755 L 719 756 L 719 776 L 718 777 L 718 833 L 719 834 L 719 839 L 720 840 L 720 843 L 721 844 L 723 852 L 728 862 L 733 869 L 738 874 L 738 875 L 755 889 L 805 916 L 821 928 L 832 939 L 844 955 L 852 971 L 852 973 L 856 983 L 856 986 L 858 991 L 858 995 L 859 996 L 860 1020 L 862 1024 L 864 1026 L 869 1028 L 874 1028 L 875 1027 L 877 1027 L 882 1022 L 882 1020 L 883 1019 L 883 1015 L 882 1014 L 882 999 L 881 998 L 881 993 L 880 992 L 879 982 L 878 981 L 877 974 L 876 973 L 874 965 L 871 960 L 871 958 L 863 942 L 858 936 L 856 932 L 848 923 L 848 922 L 839 913 L 838 913 L 832 907 L 824 902 L 821 899 L 812 894 L 810 892 L 807 891 L 805 889 L 773 873 L 761 865 L 751 855 L 744 843 L 744 841 L 742 837 L 742 834 L 741 833 L 741 826 L 740 825 L 740 808 L 741 807 L 741 768 L 742 767 L 742 755 L 743 754 L 744 749 L 746 746 L 752 741 L 757 740 L 758 739 L 844 739 L 845 738 L 851 738 L 852 737 L 859 736 L 860 735 L 865 734 L 879 726 L 890 715 L 897 703 L 897 701 L 900 694 L 900 691 L 901 690 L 901 686 L 902 685 L 902 663 L 901 662 L 901 656 L 900 655 L 900 646 L 912 632 L 912 630 L 914 627 L 914 616 L 911 610 L 911 608 L 918 600 L 919 595 L 920 594 L 920 588 L 917 580 L 917 567 L 919 565 L 929 562 L 943 555 L 956 541 L 960 531 L 960 526 L 961 525 L 960 515 L 959 514 L 959 511 L 957 508 L 957 506 L 949 494 L 928 466 L 921 458 L 917 451 L 907 439 L 894 419 L 894 417 L 893 416 L 893 401 L 892 400 L 891 380 L 890 379 L 890 374 L 889 373 L 889 367 L 887 362 L 887 358 L 886 357 L 884 346 L 882 342 L 882 339 L 880 335 L 880 332 L 875 321 L 873 313 L 866 300 L 866 298 L 864 296 L 864 294 L 862 292 L 862 290 L 860 288 L 858 283 L 844 262 L 830 246 L 830 245 L 817 232 L 816 232 L 809 225 L 808 225 L 799 217 L 773 200 L 747 187 L 742 186 L 739 184 L 734 183 L 731 181 L 729 181 L 725 179 L 722 179 L 721 178 L 718 178 L 717 177 L 714 177 L 713 176 L 710 176 L 709 175 L 706 175 L 701 173 L 697 173 L 692 171 L 679 170 L 678 169 L 672 169 L 671 168 L 660 168 L 659 167 L 614 167 L 613 168 L 605 168 L 604 169 L 589 170 L 588 171 L 583 171 L 582 172 L 578 172 L 577 173 L 574 173 L 573 174 L 558 177 L 554 179 L 551 179 L 550 180 L 542 182 L 531 187 Z" fill="#6d6661" fill-rule="evenodd"/>
  <path d="M 516 926 L 512 930 L 510 935 L 511 940 L 516 947 L 555 989 L 556 991 L 558 992 L 567 992 L 569 991 L 572 988 L 574 984 L 574 979 L 573 978 L 573 976 L 569 972 L 569 971 L 549 950 L 549 949 L 529 927 L 525 925 L 518 925 Z M 394 914 L 391 912 L 385 911 L 384 912 L 381 912 L 376 917 L 375 917 L 332 959 L 331 961 L 331 968 L 332 969 L 332 971 L 338 976 L 346 976 L 348 975 L 359 964 L 360 964 L 362 961 L 363 961 L 395 930 L 397 926 L 397 918 Z M 541 866 L 541 874 L 542 876 L 547 881 L 554 881 L 555 882 L 615 883 L 620 879 L 622 875 L 622 869 L 620 865 L 615 861 L 606 861 L 605 860 L 576 860 L 575 859 L 548 859 L 546 860 Z M 301 843 L 301 849 L 303 853 L 306 856 L 308 857 L 312 857 L 313 858 L 375 859 L 380 855 L 382 851 L 382 844 L 381 842 L 377 838 L 372 837 L 371 836 L 309 835 L 305 837 Z M 459 819 L 458 820 L 453 820 L 449 822 L 446 822 L 440 825 L 433 830 L 427 836 L 424 840 L 418 854 L 418 858 L 417 859 L 417 871 L 418 872 L 418 876 L 422 886 L 424 888 L 427 894 L 434 901 L 438 904 L 452 910 L 457 910 L 458 911 L 468 911 L 469 910 L 477 909 L 488 904 L 500 893 L 508 877 L 508 872 L 509 871 L 509 858 L 508 857 L 508 854 L 507 853 L 506 848 L 503 842 L 498 835 L 489 827 L 486 826 L 484 824 L 482 824 L 479 822 L 477 822 L 473 820 Z M 575 747 L 570 745 L 566 745 L 560 748 L 515 792 L 515 794 L 514 795 L 514 800 L 515 801 L 515 803 L 521 808 L 530 808 L 534 805 L 552 787 L 553 787 L 555 784 L 556 784 L 577 764 L 579 760 L 579 752 Z M 358 726 L 354 731 L 354 739 L 358 745 L 381 769 L 381 770 L 388 777 L 388 778 L 402 792 L 411 792 L 413 791 L 416 788 L 418 784 L 418 778 L 416 774 L 371 726 L 367 724 L 362 724 Z" fill="#d27d73" fill-rule="evenodd"/>
</svg>