<svg xmlns="http://www.w3.org/2000/svg" width="1254" height="1254" viewBox="0 0 1254 1254" fill="none">
  <path d="M 532 185 L 528 188 L 526 188 L 510 196 L 508 196 L 505 199 L 496 203 L 488 209 L 486 209 L 485 211 L 470 221 L 460 230 L 454 234 L 453 236 L 448 241 L 447 241 L 438 251 L 437 251 L 433 257 L 424 267 L 421 272 L 419 273 L 419 275 L 409 288 L 402 302 L 400 304 L 393 318 L 393 321 L 391 324 L 390 329 L 387 334 L 387 337 L 386 338 L 386 340 L 382 350 L 382 353 L 380 356 L 380 359 L 379 360 L 379 364 L 377 369 L 377 375 L 376 376 L 375 388 L 374 389 L 374 396 L 373 397 L 373 436 L 374 437 L 374 442 L 375 443 L 376 459 L 377 460 L 378 468 L 380 472 L 381 480 L 384 488 L 384 492 L 385 493 L 386 498 L 388 501 L 388 505 L 390 507 L 393 517 L 406 543 L 408 545 L 410 550 L 414 555 L 415 558 L 419 564 L 423 568 L 430 579 L 439 589 L 439 590 L 443 594 L 455 610 L 459 618 L 459 620 L 462 625 L 462 628 L 463 629 L 463 632 L 465 637 L 465 643 L 466 644 L 466 657 L 467 658 L 466 722 L 465 723 L 465 734 L 464 735 L 463 756 L 462 757 L 461 769 L 460 770 L 459 780 L 458 781 L 459 787 L 463 791 L 467 793 L 474 793 L 478 791 L 481 786 L 482 776 L 484 772 L 484 764 L 485 763 L 485 756 L 486 755 L 486 744 L 488 743 L 488 731 L 489 730 L 489 690 L 490 689 L 490 682 L 489 681 L 489 647 L 488 646 L 488 635 L 487 634 L 486 626 L 483 620 L 481 612 L 478 607 L 478 604 L 476 602 L 473 596 L 470 593 L 470 591 L 468 590 L 465 584 L 454 572 L 445 559 L 441 555 L 436 546 L 429 537 L 426 530 L 424 528 L 414 507 L 414 504 L 411 499 L 409 491 L 407 488 L 407 486 L 405 482 L 405 479 L 404 478 L 404 474 L 401 466 L 400 458 L 399 457 L 398 440 L 397 439 L 397 433 L 396 432 L 396 397 L 397 396 L 397 388 L 399 384 L 399 378 L 401 373 L 401 367 L 402 366 L 402 362 L 404 358 L 405 351 L 406 350 L 409 339 L 417 324 L 417 322 L 420 315 L 422 313 L 428 301 L 439 285 L 441 284 L 442 281 L 446 277 L 446 276 L 470 251 L 471 251 L 485 238 L 501 227 L 511 222 L 518 217 L 522 215 L 524 215 L 527 213 L 529 213 L 538 208 L 540 208 L 548 204 L 550 204 L 563 199 L 566 199 L 571 197 L 575 197 L 580 195 L 584 195 L 585 194 L 589 194 L 594 192 L 611 191 L 612 190 L 624 190 L 625 189 L 664 190 L 665 191 L 674 191 L 679 193 L 685 193 L 686 194 L 690 194 L 691 195 L 696 195 L 701 197 L 705 197 L 714 201 L 718 201 L 719 202 L 725 203 L 730 206 L 732 206 L 742 211 L 747 212 L 757 217 L 759 219 L 769 224 L 770 226 L 774 227 L 775 229 L 789 238 L 791 241 L 792 241 L 803 251 L 804 251 L 826 276 L 829 282 L 831 284 L 831 286 L 834 288 L 840 297 L 844 305 L 844 307 L 846 308 L 846 310 L 851 319 L 852 324 L 854 327 L 854 329 L 859 340 L 859 343 L 861 347 L 861 351 L 863 354 L 864 362 L 865 363 L 865 367 L 866 368 L 866 373 L 867 374 L 867 380 L 868 381 L 868 387 L 869 388 L 869 395 L 870 396 L 870 414 L 871 415 L 871 421 L 872 422 L 874 430 L 892 457 L 903 470 L 907 477 L 915 486 L 916 489 L 934 512 L 938 520 L 938 526 L 937 527 L 937 529 L 929 537 L 925 538 L 913 544 L 910 544 L 906 546 L 898 553 L 896 558 L 896 561 L 895 562 L 895 584 L 896 585 L 896 589 L 894 591 L 889 592 L 888 593 L 877 593 L 876 594 L 874 594 L 869 600 L 869 608 L 870 609 L 870 611 L 875 615 L 882 615 L 883 616 L 885 616 L 888 618 L 890 621 L 890 623 L 880 634 L 879 639 L 878 640 L 878 657 L 879 658 L 879 668 L 880 669 L 879 686 L 874 697 L 871 701 L 862 709 L 856 712 L 854 712 L 850 714 L 846 714 L 845 715 L 758 715 L 757 716 L 753 716 L 752 717 L 747 718 L 744 720 L 742 720 L 738 722 L 733 727 L 732 727 L 725 736 L 723 740 L 721 750 L 720 751 L 719 764 L 718 765 L 718 798 L 717 799 L 717 807 L 718 808 L 718 823 L 717 824 L 717 828 L 718 829 L 719 839 L 720 840 L 723 851 L 729 863 L 735 871 L 744 880 L 745 880 L 753 887 L 759 891 L 761 891 L 763 893 L 772 897 L 774 899 L 776 899 L 779 902 L 781 902 L 787 906 L 793 908 L 794 910 L 796 910 L 807 918 L 812 920 L 832 938 L 845 956 L 854 976 L 854 978 L 856 982 L 856 985 L 857 986 L 857 989 L 858 990 L 858 996 L 859 997 L 859 1002 L 860 1003 L 860 1014 L 861 1015 L 861 1021 L 862 1023 L 868 1027 L 875 1027 L 876 1026 L 878 1026 L 882 1021 L 883 1015 L 882 1014 L 882 997 L 881 996 L 879 982 L 877 977 L 877 973 L 875 970 L 875 968 L 874 967 L 873 962 L 871 959 L 871 957 L 869 954 L 869 952 L 864 943 L 861 940 L 857 932 L 840 913 L 829 905 L 824 900 L 821 899 L 811 892 L 809 892 L 806 889 L 801 887 L 799 885 L 789 881 L 784 877 L 779 876 L 769 869 L 766 868 L 756 859 L 755 859 L 753 855 L 752 855 L 747 849 L 744 843 L 743 838 L 741 835 L 741 831 L 740 830 L 741 758 L 742 757 L 742 753 L 744 748 L 749 742 L 755 739 L 759 739 L 760 738 L 776 738 L 777 739 L 792 739 L 793 738 L 810 738 L 811 739 L 848 738 L 849 737 L 853 737 L 854 736 L 860 735 L 873 729 L 875 727 L 878 726 L 889 715 L 896 704 L 896 702 L 898 699 L 898 697 L 900 693 L 901 685 L 902 684 L 902 667 L 901 666 L 900 646 L 912 631 L 914 627 L 914 617 L 913 616 L 913 613 L 911 610 L 911 607 L 916 603 L 919 597 L 919 593 L 920 592 L 919 585 L 916 577 L 917 567 L 941 555 L 943 555 L 953 545 L 957 539 L 960 532 L 961 518 L 960 517 L 959 511 L 956 506 L 956 504 L 954 502 L 951 496 L 940 482 L 933 471 L 930 469 L 923 458 L 911 444 L 909 439 L 901 430 L 894 418 L 894 416 L 893 415 L 893 392 L 891 387 L 891 379 L 890 378 L 889 365 L 888 364 L 887 355 L 885 352 L 885 349 L 881 338 L 881 334 L 880 333 L 879 328 L 877 325 L 877 323 L 875 320 L 875 317 L 873 314 L 872 309 L 863 293 L 863 291 L 860 288 L 860 286 L 853 276 L 853 274 L 850 271 L 847 265 L 842 260 L 841 257 L 838 255 L 835 250 L 829 244 L 829 243 L 821 236 L 820 234 L 819 234 L 811 226 L 805 222 L 796 214 L 793 213 L 786 207 L 784 207 L 774 200 L 765 196 L 763 194 L 761 194 L 759 192 L 751 188 L 749 188 L 736 182 L 734 182 L 727 179 L 720 178 L 716 176 L 713 176 L 706 173 L 696 172 L 695 171 L 689 171 L 688 170 L 683 170 L 682 169 L 678 169 L 677 168 L 666 168 L 665 167 L 659 167 L 658 166 L 615 166 L 614 167 L 609 167 L 608 168 L 592 169 L 591 170 L 583 171 L 582 172 L 577 172 L 576 173 L 570 173 L 566 175 L 559 176 L 556 178 L 554 178 L 541 183 L 538 183 L 535 185 Z" fill="#ffffff" fill-rule="evenodd"/>
  <path d="M 514 927 L 511 932 L 511 940 L 512 941 L 512 943 L 557 991 L 559 991 L 560 992 L 567 992 L 570 990 L 573 986 L 574 979 L 572 974 L 569 970 L 559 960 L 559 959 L 557 958 L 557 957 L 548 948 L 548 947 L 530 928 L 530 927 L 526 925 L 517 925 Z M 394 913 L 390 911 L 383 911 L 379 913 L 366 926 L 365 926 L 365 927 L 332 959 L 332 961 L 331 962 L 331 968 L 333 972 L 335 974 L 340 976 L 345 976 L 349 974 L 375 949 L 376 949 L 396 929 L 398 924 L 398 920 L 397 919 L 397 917 Z M 541 867 L 541 873 L 545 879 L 549 881 L 589 882 L 590 883 L 614 883 L 621 877 L 621 875 L 622 874 L 622 869 L 620 865 L 617 862 L 612 860 L 549 858 L 543 863 Z M 301 843 L 301 848 L 302 849 L 302 851 L 306 856 L 308 856 L 309 857 L 330 857 L 331 858 L 374 859 L 378 857 L 382 852 L 382 842 L 380 839 L 375 836 L 310 834 L 309 835 L 307 835 L 302 840 L 302 842 Z M 453 819 L 438 825 L 434 828 L 434 829 L 425 838 L 420 848 L 419 854 L 418 855 L 418 860 L 417 861 L 417 867 L 418 868 L 418 875 L 419 876 L 419 879 L 421 884 L 423 886 L 425 891 L 428 895 L 441 905 L 447 908 L 450 908 L 454 910 L 471 910 L 472 909 L 476 909 L 482 906 L 484 906 L 493 900 L 503 889 L 506 883 L 506 881 L 508 877 L 508 874 L 509 873 L 509 856 L 508 855 L 508 852 L 507 851 L 506 846 L 502 839 L 495 831 L 487 825 L 479 821 L 473 820 L 472 819 L 467 819 L 466 818 Z M 578 749 L 572 745 L 564 745 L 562 746 L 552 756 L 551 756 L 516 790 L 515 792 L 515 801 L 517 805 L 522 808 L 529 808 L 533 806 L 578 762 L 579 760 L 579 751 Z M 359 725 L 355 729 L 355 731 L 354 732 L 354 738 L 360 747 L 401 791 L 403 791 L 404 792 L 409 792 L 414 790 L 418 785 L 418 776 L 414 770 L 411 768 L 411 767 L 387 742 L 387 741 L 373 726 L 370 724 L 361 724 Z" fill="#d27d73" fill-rule="evenodd"/>
</svg>