<svg xmlns="http://www.w3.org/2000/svg" width="1254" height="1254" viewBox="0 0 1254 1254" fill="none">
  <path d="M 959 573 L 958 574 L 950 574 L 949 575 L 945 575 L 937 578 L 934 578 L 914 589 L 902 600 L 891 616 L 884 632 L 883 640 L 882 641 L 882 646 L 881 647 L 881 665 L 882 666 L 882 672 L 883 673 L 884 681 L 890 697 L 892 699 L 896 707 L 910 722 L 923 731 L 931 735 L 933 735 L 943 739 L 953 740 L 954 741 L 973 741 L 974 740 L 979 740 L 980 739 L 987 738 L 990 736 L 995 735 L 1004 730 L 1009 726 L 1012 725 L 1018 719 L 1019 719 L 1030 706 L 1040 687 L 1040 684 L 1043 677 L 1043 672 L 1044 671 L 1044 645 L 1043 644 L 1043 639 L 1042 638 L 1041 631 L 1039 628 L 1039 626 L 1034 615 L 1024 601 L 1014 591 L 1004 584 L 994 579 L 992 579 L 985 576 L 976 575 L 975 574 Z M 955 596 L 969 596 L 970 597 L 975 597 L 979 599 L 982 599 L 993 604 L 1000 609 L 1009 618 L 1012 622 L 1014 627 L 1016 629 L 1018 633 L 1018 635 L 1020 638 L 1021 646 L 1022 647 L 1022 653 L 1023 654 L 1023 664 L 1022 665 L 1022 670 L 1021 671 L 1021 674 L 1020 675 L 1019 680 L 1015 688 L 1007 699 L 1002 704 L 992 711 L 986 714 L 984 714 L 980 716 L 977 716 L 976 717 L 972 717 L 971 718 L 956 718 L 955 717 L 950 717 L 949 716 L 941 714 L 925 705 L 917 697 L 911 688 L 905 674 L 904 664 L 903 663 L 903 649 L 904 648 L 905 640 L 911 626 L 916 619 L 928 607 L 934 603 L 940 600 L 942 600 L 946 598 L 949 598 L 950 597 L 954 597 Z M 163 780 L 162 788 L 161 789 L 161 802 L 162 803 L 162 807 L 163 808 L 164 813 L 170 824 L 179 833 L 191 840 L 193 840 L 197 842 L 202 842 L 203 843 L 219 843 L 220 844 L 227 844 L 228 845 L 228 1030 L 230 1034 L 235 1038 L 243 1038 L 245 1037 L 250 1031 L 250 844 L 251 843 L 275 843 L 276 844 L 280 844 L 281 845 L 281 1018 L 282 1020 L 289 1026 L 295 1026 L 299 1024 L 302 1021 L 304 1016 L 304 1004 L 303 1003 L 303 969 L 304 968 L 303 899 L 304 898 L 304 885 L 305 884 L 948 884 L 949 885 L 949 1017 L 950 1018 L 950 1020 L 955 1025 L 957 1025 L 958 1026 L 963 1026 L 967 1024 L 970 1021 L 972 1017 L 972 994 L 971 993 L 971 989 L 972 988 L 972 978 L 971 977 L 971 969 L 972 968 L 972 934 L 971 933 L 972 865 L 971 864 L 971 851 L 972 850 L 972 845 L 973 844 L 980 844 L 981 843 L 996 843 L 997 844 L 1001 844 L 1002 845 L 1002 925 L 1001 926 L 1001 929 L 1002 930 L 1002 1031 L 1007 1037 L 1011 1039 L 1014 1039 L 1019 1037 L 1022 1034 L 1024 1030 L 1024 844 L 1025 843 L 1049 843 L 1050 842 L 1054 842 L 1055 841 L 1058 841 L 1064 838 L 1066 838 L 1075 832 L 1080 827 L 1086 818 L 1091 805 L 1091 785 L 1085 770 L 1081 764 L 1075 758 L 1068 753 L 1057 748 L 1052 748 L 1051 747 L 867 747 L 866 746 L 866 742 L 868 739 L 868 737 L 871 731 L 871 728 L 873 725 L 874 716 L 875 715 L 875 710 L 876 709 L 876 704 L 877 703 L 877 686 L 876 685 L 876 677 L 875 676 L 874 666 L 873 665 L 871 657 L 864 644 L 861 644 L 860 642 L 857 642 L 854 645 L 845 649 L 846 656 L 852 670 L 852 673 L 854 678 L 854 684 L 855 685 L 855 702 L 854 703 L 854 709 L 853 710 L 852 719 L 851 720 L 850 725 L 848 728 L 847 733 L 841 744 L 829 757 L 822 762 L 820 762 L 817 764 L 815 764 L 811 766 L 806 766 L 805 767 L 783 767 L 782 768 L 762 768 L 761 769 L 736 769 L 735 770 L 688 771 L 687 772 L 662 772 L 661 773 L 642 773 L 641 774 L 634 774 L 633 773 L 628 772 L 625 768 L 621 765 L 619 760 L 619 751 L 624 741 L 631 735 L 638 732 L 641 732 L 642 731 L 649 731 L 650 730 L 655 730 L 656 729 L 662 729 L 663 728 L 669 728 L 670 727 L 676 727 L 677 726 L 686 726 L 687 725 L 698 724 L 699 723 L 705 723 L 706 722 L 713 722 L 714 721 L 720 721 L 721 720 L 735 719 L 736 718 L 741 718 L 742 717 L 757 716 L 758 715 L 762 715 L 763 714 L 770 714 L 771 713 L 776 713 L 777 712 L 787 711 L 793 706 L 794 704 L 794 697 L 791 692 L 786 689 L 773 690 L 772 691 L 764 691 L 763 692 L 755 692 L 754 693 L 748 693 L 747 694 L 741 694 L 740 695 L 734 695 L 733 696 L 726 696 L 725 697 L 720 697 L 719 698 L 712 698 L 711 699 L 705 699 L 704 700 L 698 700 L 697 701 L 691 701 L 690 702 L 684 702 L 683 703 L 677 703 L 676 704 L 669 704 L 668 705 L 662 705 L 661 706 L 656 706 L 655 707 L 648 707 L 647 708 L 635 709 L 634 710 L 626 712 L 613 720 L 608 725 L 604 731 L 599 741 L 599 745 L 597 747 L 535 747 L 534 746 L 534 662 L 535 661 L 537 661 L 538 660 L 543 660 L 544 659 L 550 659 L 551 658 L 559 658 L 560 657 L 564 657 L 565 656 L 569 656 L 570 655 L 575 655 L 576 654 L 581 654 L 582 653 L 589 653 L 590 652 L 595 652 L 596 651 L 613 649 L 614 648 L 618 648 L 619 647 L 623 647 L 624 646 L 628 646 L 631 648 L 644 652 L 647 654 L 652 655 L 658 658 L 661 658 L 666 660 L 679 660 L 680 659 L 683 659 L 691 656 L 697 652 L 702 647 L 707 639 L 709 629 L 710 628 L 710 615 L 709 614 L 709 610 L 708 609 L 707 604 L 705 602 L 702 596 L 694 588 L 685 583 L 683 581 L 681 581 L 663 572 L 661 572 L 651 567 L 649 565 L 649 558 L 650 557 L 650 549 L 651 548 L 651 542 L 652 541 L 652 535 L 653 534 L 653 527 L 654 526 L 654 521 L 655 520 L 655 514 L 656 513 L 656 507 L 657 506 L 657 500 L 658 499 L 658 493 L 659 492 L 659 486 L 660 485 L 660 479 L 661 478 L 661 465 L 658 461 L 653 458 L 648 458 L 644 460 L 640 466 L 639 479 L 638 480 L 638 486 L 637 487 L 637 493 L 636 494 L 636 501 L 635 502 L 635 508 L 634 509 L 634 515 L 633 516 L 633 520 L 632 521 L 632 528 L 631 529 L 631 535 L 630 536 L 630 541 L 629 542 L 629 550 L 627 554 L 623 554 L 609 547 L 607 547 L 604 545 L 600 544 L 592 537 L 566 486 L 566 484 L 547 446 L 543 443 L 534 443 L 532 444 L 528 449 L 528 458 L 529 459 L 529 461 L 535 471 L 535 473 L 547 496 L 547 498 L 563 529 L 563 531 L 574 551 L 587 563 L 591 565 L 593 565 L 604 571 L 611 573 L 620 578 L 622 578 L 634 584 L 636 584 L 651 592 L 656 593 L 663 597 L 670 599 L 682 606 L 688 615 L 688 617 L 689 618 L 689 624 L 686 632 L 679 638 L 669 638 L 668 637 L 660 635 L 657 633 L 654 633 L 641 627 L 636 626 L 623 620 L 610 616 L 605 613 L 600 612 L 597 610 L 595 610 L 584 605 L 582 605 L 577 602 L 575 602 L 564 597 L 562 597 L 554 592 L 547 585 L 542 578 L 531 555 L 529 553 L 519 532 L 517 530 L 517 528 L 513 520 L 511 518 L 499 493 L 497 491 L 489 474 L 487 472 L 484 466 L 483 460 L 482 459 L 482 441 L 483 440 L 483 435 L 484 434 L 484 431 L 485 430 L 486 425 L 494 413 L 500 407 L 506 403 L 521 397 L 524 397 L 525 396 L 532 396 L 533 395 L 546 395 L 547 396 L 579 396 L 580 397 L 585 397 L 586 396 L 592 396 L 593 397 L 614 397 L 615 398 L 620 398 L 624 400 L 627 400 L 637 404 L 646 410 L 656 420 L 663 431 L 664 436 L 666 439 L 668 447 L 670 450 L 670 452 L 672 456 L 672 459 L 673 460 L 673 462 L 674 463 L 677 474 L 679 477 L 679 480 L 684 493 L 692 493 L 699 497 L 702 500 L 707 501 L 708 499 L 707 491 L 704 485 L 704 482 L 702 479 L 702 477 L 701 476 L 701 474 L 700 473 L 700 471 L 699 470 L 699 468 L 698 467 L 698 465 L 697 464 L 697 462 L 696 461 L 685 426 L 683 423 L 683 421 L 681 417 L 670 401 L 663 394 L 658 391 L 654 387 L 637 379 L 627 377 L 626 376 L 617 375 L 616 374 L 587 374 L 586 373 L 525 373 L 524 374 L 518 374 L 517 375 L 503 379 L 487 388 L 477 398 L 476 398 L 476 400 L 471 406 L 465 418 L 465 420 L 462 427 L 461 437 L 460 438 L 460 451 L 459 452 L 459 465 L 458 466 L 458 479 L 457 480 L 456 505 L 455 506 L 455 521 L 454 522 L 454 536 L 453 537 L 453 549 L 452 550 L 451 573 L 450 574 L 450 590 L 449 591 L 449 605 L 448 606 L 448 625 L 447 626 L 447 638 L 446 639 L 446 651 L 445 652 L 433 653 L 432 654 L 425 654 L 424 655 L 418 655 L 417 656 L 409 656 L 408 657 L 370 657 L 369 658 L 284 658 L 283 659 L 276 660 L 268 664 L 266 664 L 258 669 L 249 677 L 240 690 L 240 692 L 238 696 L 238 699 L 236 704 L 236 711 L 235 712 L 235 715 L 236 716 L 236 724 L 237 725 L 237 729 L 238 730 L 239 735 L 245 744 L 245 746 L 244 747 L 203 747 L 202 748 L 198 748 L 194 750 L 191 750 L 183 754 L 172 764 L 167 771 L 165 775 L 165 777 Z M 303 850 L 304 849 L 304 844 L 305 843 L 560 843 L 561 844 L 572 844 L 573 843 L 650 843 L 651 844 L 654 844 L 655 843 L 948 843 L 949 844 L 949 860 L 948 861 L 304 861 L 303 860 Z M 183 790 L 184 789 L 185 784 L 187 781 L 195 773 L 203 770 L 207 770 L 208 771 L 210 771 L 211 770 L 226 770 L 227 771 L 234 771 L 235 770 L 414 770 L 415 771 L 417 771 L 418 770 L 425 770 L 426 771 L 438 771 L 439 770 L 551 770 L 552 771 L 559 771 L 560 770 L 580 770 L 581 771 L 585 771 L 586 770 L 599 770 L 604 779 L 611 787 L 618 792 L 629 796 L 690 795 L 691 794 L 711 794 L 712 793 L 744 793 L 745 792 L 765 792 L 766 791 L 785 791 L 786 790 L 808 790 L 809 789 L 819 788 L 825 785 L 827 785 L 829 783 L 831 783 L 833 781 L 839 778 L 848 770 L 983 770 L 984 771 L 987 771 L 988 770 L 990 770 L 991 771 L 994 771 L 995 770 L 1044 770 L 1045 771 L 1053 771 L 1054 772 L 1056 772 L 1066 781 L 1069 788 L 1070 799 L 1069 800 L 1069 803 L 1065 810 L 1059 816 L 1049 820 L 203 820 L 195 817 L 192 813 L 190 813 L 188 811 L 183 801 Z M 513 666 L 513 727 L 512 728 L 512 746 L 511 747 L 288 747 L 287 746 L 283 746 L 280 744 L 278 744 L 269 739 L 264 734 L 260 728 L 260 726 L 258 722 L 258 719 L 257 718 L 257 710 L 258 709 L 258 706 L 259 705 L 260 700 L 264 694 L 274 685 L 276 685 L 282 682 L 289 681 L 290 680 L 379 680 L 380 679 L 412 679 L 413 678 L 431 677 L 432 676 L 447 675 L 448 674 L 460 673 L 461 672 L 467 672 L 468 671 L 474 671 L 475 670 L 481 670 L 482 669 L 496 668 L 497 667 L 502 667 L 503 666 L 508 666 L 509 665 L 512 665 Z M 479 505 L 481 505 L 486 514 L 486 516 L 488 518 L 488 520 L 494 532 L 496 534 L 514 571 L 516 573 L 522 587 L 532 602 L 538 608 L 545 613 L 550 615 L 552 617 L 556 619 L 561 620 L 564 622 L 572 624 L 575 626 L 580 627 L 581 628 L 581 630 L 578 632 L 573 632 L 572 633 L 567 633 L 566 634 L 561 634 L 560 635 L 554 635 L 553 636 L 547 636 L 546 637 L 529 639 L 528 640 L 522 640 L 521 641 L 511 642 L 510 643 L 504 643 L 503 644 L 492 645 L 491 646 L 484 646 L 483 647 L 478 647 L 477 648 L 472 648 L 471 649 L 469 649 L 468 648 L 469 618 L 470 617 L 471 592 L 472 591 L 472 578 L 473 577 L 473 564 L 474 563 L 474 550 L 475 549 L 475 538 L 476 537 L 476 522 L 477 521 L 477 509 Z M 581 200 L 580 201 L 574 201 L 573 202 L 566 203 L 549 210 L 535 220 L 524 232 L 519 239 L 513 251 L 513 253 L 511 257 L 511 260 L 509 264 L 509 269 L 508 270 L 507 289 L 508 290 L 508 298 L 509 299 L 509 303 L 510 304 L 511 311 L 518 327 L 524 336 L 538 350 L 554 360 L 556 360 L 561 363 L 563 363 L 567 365 L 570 365 L 571 366 L 575 366 L 576 367 L 591 368 L 592 367 L 607 366 L 608 365 L 618 363 L 632 356 L 638 352 L 653 338 L 660 328 L 666 316 L 666 314 L 669 307 L 669 304 L 671 299 L 671 292 L 672 291 L 672 278 L 671 277 L 671 270 L 670 269 L 669 261 L 668 260 L 666 252 L 663 247 L 663 245 L 653 230 L 641 218 L 631 211 L 613 203 L 605 202 L 604 201 L 599 201 L 598 200 Z M 579 223 L 596 223 L 597 224 L 607 225 L 618 230 L 620 232 L 622 232 L 631 240 L 631 241 L 632 241 L 637 246 L 642 253 L 645 259 L 645 261 L 648 268 L 648 271 L 649 272 L 649 276 L 650 277 L 650 291 L 649 292 L 648 301 L 645 307 L 645 309 L 636 323 L 624 334 L 614 340 L 612 340 L 602 344 L 596 344 L 595 345 L 578 344 L 577 343 L 567 341 L 559 337 L 552 332 L 541 321 L 538 315 L 536 313 L 536 311 L 533 306 L 533 304 L 531 300 L 531 297 L 530 296 L 530 289 L 529 288 L 530 271 L 531 270 L 531 267 L 532 266 L 533 261 L 540 248 L 549 238 L 550 238 L 558 231 L 568 226 L 578 224 Z" fill="#ffffff" fill-rule="evenodd"/>
  <path d="M 773 605 L 774 611 L 779 617 L 781 617 L 782 618 L 793 618 L 794 619 L 799 619 L 800 620 L 808 622 L 820 628 L 833 638 L 833 639 L 841 648 L 846 648 L 854 644 L 859 640 L 859 636 L 858 634 L 853 629 L 849 623 L 848 623 L 841 616 L 834 611 L 817 602 L 812 601 L 809 599 L 798 597 L 797 596 L 784 595 L 779 597 L 775 601 Z M 739 594 L 738 595 L 735 595 L 728 599 L 723 605 L 721 609 L 721 622 L 725 630 L 731 635 L 739 638 L 746 638 L 754 635 L 760 629 L 763 624 L 764 614 L 763 613 L 762 606 L 755 598 L 750 595 L 747 595 L 746 594 Z M 865 506 L 861 504 L 854 504 L 852 505 L 847 510 L 832 530 L 827 535 L 820 545 L 816 549 L 813 554 L 812 560 L 813 561 L 813 563 L 818 568 L 824 569 L 830 566 L 848 544 L 848 543 L 853 538 L 856 533 L 866 522 L 868 517 L 868 511 Z M 675 506 L 672 511 L 672 516 L 673 517 L 673 519 L 691 546 L 694 549 L 695 552 L 698 555 L 699 558 L 707 570 L 712 574 L 719 574 L 720 573 L 722 573 L 725 570 L 727 566 L 726 559 L 708 532 L 705 529 L 690 506 L 686 504 L 679 504 Z M 777 462 L 771 463 L 766 467 L 766 469 L 765 470 L 765 484 L 764 485 L 764 541 L 765 542 L 765 544 L 768 547 L 772 549 L 778 549 L 783 546 L 785 543 L 785 535 L 786 534 L 786 470 L 780 463 L 778 463 Z" fill="#d27d73" fill-rule="evenodd"/>
</svg>