<svg xmlns="http://www.w3.org/2000/svg" width="1254" height="1254" viewBox="0 0 1254 1254" fill="none">
  <path d="M 564 766 L 560 763 L 553 763 L 549 765 L 532 785 L 532 786 L 521 798 L 521 799 L 515 805 L 506 817 L 494 830 L 494 831 L 479 848 L 474 855 L 459 871 L 456 872 L 454 874 L 452 874 L 449 876 L 447 876 L 444 878 L 442 878 L 429 884 L 424 885 L 421 887 L 419 887 L 406 893 L 401 894 L 388 900 L 383 901 L 380 903 L 378 903 L 365 909 L 360 910 L 357 912 L 355 912 L 352 914 L 350 914 L 347 916 L 345 916 L 342 918 L 337 919 L 334 921 L 332 921 L 329 923 L 327 923 L 324 925 L 322 925 L 319 927 L 315 928 L 305 937 L 302 942 L 302 944 L 300 948 L 300 951 L 299 952 L 299 954 L 296 961 L 296 964 L 292 975 L 287 980 L 283 982 L 274 982 L 270 980 L 267 977 L 264 971 L 264 915 L 265 914 L 266 908 L 270 901 L 277 894 L 415 825 L 424 816 L 475 714 L 475 709 L 472 704 L 466 701 L 459 703 L 454 709 L 454 711 L 434 751 L 432 753 L 432 755 L 421 777 L 419 779 L 419 781 L 411 797 L 409 799 L 408 803 L 403 808 L 334 842 L 332 844 L 330 844 L 328 846 L 291 864 L 289 866 L 285 868 L 283 868 L 269 875 L 262 880 L 254 888 L 247 900 L 247 902 L 245 906 L 245 909 L 244 910 L 244 915 L 243 916 L 243 919 L 244 920 L 244 946 L 243 947 L 244 974 L 245 975 L 245 978 L 247 981 L 247 983 L 252 991 L 260 998 L 269 1002 L 273 1002 L 274 1003 L 283 1003 L 284 1002 L 291 1001 L 300 996 L 309 986 L 313 978 L 313 976 L 315 972 L 315 969 L 320 956 L 321 950 L 325 946 L 332 944 L 337 941 L 342 940 L 345 938 L 350 937 L 358 933 L 363 932 L 366 930 L 368 930 L 371 928 L 373 928 L 386 922 L 399 918 L 404 915 L 409 914 L 419 909 L 429 906 L 442 900 L 444 900 L 455 895 L 457 895 L 473 886 L 485 874 L 485 873 L 491 867 L 500 855 L 512 842 L 512 841 L 517 836 L 517 835 L 522 830 L 527 823 L 533 817 L 537 811 L 543 805 L 543 804 L 563 781 L 566 776 L 566 770 Z M 498 348 L 486 356 L 479 363 L 479 364 L 468 376 L 468 377 L 463 382 L 458 389 L 446 402 L 437 414 L 419 434 L 411 445 L 404 452 L 398 461 L 395 469 L 394 484 L 395 485 L 396 493 L 402 504 L 409 511 L 415 515 L 423 518 L 426 518 L 427 519 L 440 519 L 441 518 L 448 517 L 449 516 L 451 516 L 463 508 L 466 504 L 509 460 L 509 459 L 529 439 L 536 438 L 541 443 L 543 447 L 543 450 L 545 455 L 545 473 L 544 474 L 542 485 L 536 497 L 536 499 L 530 511 L 530 513 L 527 518 L 527 520 L 523 527 L 523 529 L 517 541 L 517 543 L 514 548 L 514 550 L 511 555 L 511 557 L 502 575 L 500 582 L 493 596 L 493 603 L 494 605 L 497 608 L 501 610 L 507 609 L 512 605 L 512 603 L 516 596 L 516 594 L 520 587 L 520 585 L 524 578 L 524 576 L 528 569 L 528 567 L 531 562 L 531 560 L 536 551 L 538 544 L 542 537 L 542 535 L 545 530 L 545 528 L 550 519 L 552 512 L 561 493 L 563 483 L 564 482 L 564 478 L 565 477 L 565 470 L 566 469 L 565 450 L 564 449 L 562 439 L 563 438 L 604 438 L 610 433 L 610 431 L 611 430 L 610 423 L 604 418 L 528 418 L 527 419 L 521 420 L 513 425 L 512 427 L 490 449 L 490 450 L 445 496 L 437 499 L 430 499 L 423 496 L 416 489 L 415 484 L 414 483 L 414 476 L 417 469 L 435 448 L 435 447 L 443 439 L 446 434 L 463 415 L 463 414 L 468 409 L 468 408 L 473 403 L 478 396 L 496 376 L 496 375 L 503 369 L 513 364 L 523 363 L 524 362 L 645 362 L 646 363 L 656 363 L 657 364 L 668 365 L 669 366 L 672 366 L 673 367 L 681 369 L 698 377 L 716 390 L 725 399 L 725 400 L 733 409 L 748 431 L 748 435 L 743 445 L 741 447 L 741 449 L 739 451 L 729 472 L 727 474 L 727 476 L 725 478 L 715 499 L 713 501 L 702 524 L 700 526 L 693 541 L 691 543 L 682 562 L 680 564 L 668 589 L 666 591 L 657 610 L 655 612 L 643 636 L 639 636 L 635 633 L 630 631 L 628 629 L 614 622 L 612 622 L 607 619 L 605 619 L 600 616 L 595 615 L 587 611 L 585 611 L 584 610 L 582 610 L 581 609 L 567 605 L 564 603 L 561 603 L 558 601 L 556 601 L 552 599 L 549 599 L 545 597 L 542 597 L 538 599 L 534 603 L 533 610 L 535 614 L 539 617 L 556 622 L 559 624 L 561 624 L 571 628 L 574 628 L 577 630 L 588 633 L 593 636 L 600 638 L 627 652 L 639 660 L 664 683 L 665 683 L 675 693 L 676 693 L 684 701 L 685 701 L 698 714 L 699 714 L 708 723 L 709 723 L 728 741 L 729 741 L 752 763 L 756 772 L 756 780 L 757 781 L 757 792 L 758 793 L 758 804 L 759 805 L 759 815 L 760 816 L 760 828 L 761 829 L 761 839 L 762 840 L 762 852 L 763 853 L 763 866 L 764 867 L 764 878 L 765 879 L 765 891 L 766 892 L 766 905 L 767 906 L 768 926 L 773 938 L 783 947 L 793 951 L 796 951 L 800 953 L 803 953 L 807 955 L 810 955 L 811 956 L 814 956 L 818 958 L 824 959 L 830 964 L 831 966 L 831 975 L 825 981 L 823 981 L 822 982 L 752 982 L 745 979 L 739 973 L 736 967 L 736 964 L 735 963 L 735 960 L 733 955 L 733 951 L 730 943 L 730 939 L 729 938 L 729 935 L 728 934 L 728 931 L 727 930 L 727 927 L 726 926 L 726 923 L 725 922 L 725 919 L 724 918 L 724 915 L 723 914 L 723 911 L 722 910 L 722 907 L 721 906 L 721 903 L 720 902 L 720 899 L 719 898 L 719 895 L 717 890 L 717 886 L 716 885 L 715 878 L 713 874 L 713 871 L 712 870 L 712 867 L 710 862 L 710 858 L 707 850 L 707 847 L 705 842 L 705 838 L 704 837 L 704 834 L 703 833 L 703 830 L 702 829 L 702 826 L 701 825 L 701 822 L 699 817 L 699 813 L 698 812 L 698 809 L 696 804 L 688 795 L 684 793 L 681 790 L 670 784 L 661 777 L 652 772 L 644 766 L 641 765 L 630 757 L 627 756 L 611 745 L 603 745 L 599 748 L 597 753 L 598 760 L 602 764 L 605 765 L 622 777 L 625 778 L 642 790 L 645 791 L 677 813 L 678 818 L 679 819 L 679 822 L 680 823 L 680 826 L 681 827 L 681 830 L 682 831 L 682 834 L 683 835 L 683 838 L 684 839 L 684 843 L 685 844 L 686 851 L 688 855 L 688 859 L 689 860 L 689 863 L 690 864 L 690 867 L 691 868 L 694 883 L 696 887 L 697 895 L 699 899 L 699 903 L 700 904 L 700 907 L 701 908 L 701 911 L 702 912 L 702 915 L 704 920 L 704 924 L 705 925 L 707 935 L 708 936 L 709 944 L 711 948 L 711 951 L 712 952 L 712 955 L 713 956 L 713 959 L 715 964 L 716 972 L 720 981 L 724 987 L 731 994 L 741 1000 L 743 1000 L 747 1002 L 751 1002 L 752 1003 L 822 1003 L 823 1002 L 827 1002 L 835 999 L 846 989 L 849 984 L 849 982 L 851 978 L 851 963 L 847 953 L 842 947 L 834 941 L 826 938 L 823 938 L 819 936 L 816 936 L 812 934 L 809 934 L 805 932 L 795 930 L 789 925 L 789 923 L 788 922 L 787 901 L 786 900 L 786 888 L 785 887 L 785 875 L 784 874 L 784 861 L 783 860 L 783 847 L 782 846 L 781 823 L 780 822 L 780 809 L 779 808 L 778 785 L 777 784 L 777 773 L 776 772 L 776 768 L 775 767 L 773 759 L 767 749 L 755 737 L 754 737 L 742 725 L 741 725 L 731 715 L 730 715 L 711 697 L 710 697 L 702 689 L 701 689 L 688 676 L 687 676 L 667 657 L 666 657 L 660 651 L 660 647 L 664 641 L 664 639 L 666 635 L 668 633 L 674 620 L 676 618 L 692 586 L 694 584 L 694 582 L 699 572 L 701 570 L 723 527 L 726 527 L 763 566 L 772 571 L 774 571 L 777 573 L 780 573 L 781 574 L 785 574 L 786 575 L 799 575 L 800 574 L 804 574 L 805 573 L 810 572 L 813 570 L 815 570 L 822 566 L 827 561 L 828 561 L 855 538 L 856 538 L 871 525 L 877 521 L 888 511 L 893 508 L 909 494 L 925 482 L 939 469 L 943 463 L 943 461 L 945 458 L 946 452 L 947 451 L 947 439 L 946 438 L 946 433 L 941 422 L 933 413 L 917 405 L 910 405 L 909 404 L 907 404 L 906 405 L 899 405 L 898 406 L 892 407 L 879 415 L 870 423 L 865 426 L 859 432 L 854 435 L 841 446 L 837 448 L 826 458 L 821 461 L 808 472 L 806 473 L 802 473 L 799 470 L 777 437 L 774 434 L 771 428 L 757 407 L 754 404 L 746 392 L 741 387 L 741 386 L 723 369 L 708 359 L 694 352 L 692 352 L 689 350 L 687 350 L 677 346 L 669 345 L 668 344 L 663 344 L 662 343 L 656 343 L 655 342 L 517 342 L 512 344 L 508 344 L 500 348 Z M 926 438 L 926 450 L 923 456 L 918 461 L 917 461 L 912 466 L 902 473 L 896 479 L 885 487 L 880 492 L 879 492 L 875 496 L 859 508 L 848 518 L 843 521 L 810 549 L 803 553 L 800 553 L 795 555 L 790 555 L 789 554 L 782 553 L 774 548 L 773 546 L 752 525 L 752 524 L 737 509 L 735 506 L 735 504 L 761 454 L 763 454 L 766 457 L 778 476 L 784 484 L 790 490 L 801 494 L 808 494 L 818 490 L 899 426 L 901 426 L 902 425 L 913 425 L 921 430 Z M 775 179 L 774 180 L 768 180 L 767 181 L 760 182 L 759 183 L 751 185 L 739 191 L 728 199 L 718 209 L 711 219 L 704 233 L 704 235 L 701 242 L 700 250 L 699 251 L 698 269 L 699 270 L 699 278 L 700 279 L 700 283 L 701 284 L 702 291 L 709 307 L 718 320 L 730 332 L 742 340 L 750 344 L 752 344 L 762 348 L 772 349 L 773 350 L 794 350 L 795 349 L 799 349 L 800 348 L 803 348 L 804 347 L 812 345 L 823 340 L 836 331 L 847 320 L 857 305 L 863 291 L 863 288 L 865 283 L 865 279 L 866 278 L 867 259 L 866 258 L 866 251 L 865 250 L 864 241 L 863 240 L 861 232 L 857 224 L 846 208 L 836 198 L 821 188 L 819 188 L 814 185 L 812 185 L 806 182 L 798 181 L 797 180 L 792 180 L 791 179 Z M 780 199 L 798 201 L 799 202 L 807 204 L 809 206 L 813 207 L 822 213 L 833 224 L 839 233 L 845 248 L 846 258 L 847 259 L 846 278 L 845 279 L 842 290 L 833 305 L 818 319 L 804 326 L 802 326 L 798 328 L 794 328 L 793 329 L 773 329 L 772 328 L 767 328 L 766 327 L 758 325 L 747 319 L 733 306 L 728 299 L 723 289 L 723 287 L 721 283 L 721 280 L 720 279 L 720 275 L 719 274 L 719 255 L 720 254 L 721 246 L 728 230 L 733 223 L 743 213 L 750 208 L 764 202 L 772 201 L 773 200 L 779 200 Z" fill="#6d6661" fill-rule="evenodd"/>
  <path d="M 517 699 L 512 705 L 512 712 L 534 738 L 538 744 L 543 749 L 545 750 L 552 750 L 556 747 L 558 744 L 558 737 L 533 707 L 533 706 L 526 699 L 524 699 L 523 698 L 519 698 Z M 435 695 L 431 691 L 425 690 L 424 691 L 422 691 L 410 700 L 383 723 L 383 725 L 382 726 L 382 731 L 384 735 L 389 738 L 393 738 L 398 736 L 414 722 L 419 719 L 434 706 L 435 706 L 436 704 L 436 697 Z M 543 669 L 543 677 L 544 679 L 549 683 L 559 683 L 560 684 L 568 684 L 569 685 L 578 685 L 579 686 L 598 687 L 599 686 L 601 686 L 605 681 L 605 673 L 604 671 L 600 668 L 596 668 L 595 667 L 586 667 L 585 666 L 577 666 L 576 665 L 566 665 L 565 664 L 550 663 L 546 665 Z M 368 640 L 368 645 L 369 646 L 369 648 L 373 652 L 375 652 L 376 653 L 387 653 L 388 654 L 397 654 L 398 655 L 405 655 L 406 656 L 424 657 L 428 655 L 431 650 L 431 644 L 430 642 L 427 639 L 422 638 L 421 637 L 413 637 L 412 636 L 404 636 L 403 635 L 394 635 L 393 634 L 384 634 L 383 633 L 374 633 L 370 636 Z M 483 621 L 482 622 L 475 623 L 469 626 L 460 634 L 455 643 L 455 645 L 453 649 L 453 663 L 457 674 L 466 684 L 478 690 L 481 690 L 482 691 L 492 691 L 493 690 L 500 689 L 508 685 L 516 677 L 520 670 L 520 668 L 522 664 L 523 654 L 522 653 L 522 648 L 518 638 L 508 627 L 505 626 L 503 624 L 501 624 L 497 622 L 493 622 L 492 621 Z M 422 562 L 417 568 L 417 575 L 441 606 L 443 610 L 447 614 L 454 615 L 458 613 L 462 608 L 462 601 L 445 580 L 436 567 L 431 562 L 429 562 L 428 561 Z" fill="#d27d73" fill-rule="evenodd"/>
</svg>