<svg xmlns="http://www.w3.org/2000/svg" width="1254" height="1254" viewBox="0 0 1254 1254" fill="none">
  <path d="M 578 780 L 575 777 L 570 775 L 564 776 L 560 779 L 560 780 L 549 792 L 545 798 L 543 799 L 542 802 L 536 808 L 530 816 L 527 818 L 512 838 L 509 840 L 509 841 L 499 852 L 494 859 L 491 861 L 484 871 L 478 877 L 476 881 L 467 889 L 459 893 L 456 893 L 454 895 L 452 895 L 443 900 L 440 900 L 435 903 L 432 903 L 425 907 L 423 907 L 415 911 L 407 913 L 404 915 L 402 915 L 399 917 L 392 919 L 387 922 L 385 922 L 377 926 L 369 928 L 367 930 L 357 933 L 347 938 L 344 938 L 341 940 L 328 944 L 324 947 L 320 948 L 318 950 L 313 952 L 309 956 L 305 963 L 305 965 L 302 971 L 301 977 L 298 983 L 297 990 L 295 992 L 295 994 L 293 998 L 288 1003 L 284 1005 L 277 1006 L 272 1004 L 267 999 L 265 995 L 265 970 L 264 969 L 264 954 L 265 953 L 265 933 L 268 927 L 268 925 L 271 921 L 281 912 L 312 897 L 314 895 L 336 884 L 338 884 L 343 880 L 347 879 L 365 869 L 367 869 L 369 867 L 382 861 L 384 859 L 387 859 L 390 856 L 394 855 L 408 848 L 410 846 L 412 846 L 422 841 L 429 834 L 431 830 L 433 829 L 436 823 L 436 821 L 444 806 L 444 804 L 446 802 L 453 788 L 453 786 L 459 774 L 461 772 L 466 762 L 466 760 L 469 754 L 471 752 L 471 750 L 474 744 L 476 742 L 484 725 L 484 719 L 483 718 L 483 716 L 479 712 L 477 712 L 476 711 L 470 711 L 468 712 L 464 716 L 462 721 L 460 723 L 457 729 L 457 731 L 447 749 L 447 752 L 445 754 L 443 758 L 443 760 L 437 772 L 434 776 L 433 781 L 429 787 L 426 794 L 424 796 L 424 798 L 415 815 L 415 817 L 412 821 L 393 831 L 391 831 L 389 833 L 349 853 L 347 855 L 345 855 L 336 860 L 334 860 L 332 862 L 322 867 L 320 867 L 306 875 L 304 875 L 303 877 L 286 885 L 284 887 L 282 887 L 280 889 L 270 893 L 263 898 L 255 906 L 248 917 L 248 919 L 246 922 L 246 924 L 244 928 L 244 932 L 243 933 L 243 994 L 244 995 L 244 999 L 245 1000 L 246 1005 L 252 1016 L 259 1022 L 261 1022 L 263 1024 L 271 1027 L 286 1028 L 287 1027 L 290 1027 L 293 1025 L 295 1025 L 302 1021 L 309 1014 L 314 1007 L 314 1005 L 318 997 L 318 993 L 322 982 L 322 979 L 326 971 L 330 967 L 335 966 L 338 964 L 340 964 L 344 962 L 347 962 L 352 959 L 362 956 L 369 952 L 371 952 L 384 946 L 388 946 L 389 944 L 394 943 L 406 937 L 412 936 L 415 934 L 423 932 L 430 928 L 432 928 L 434 926 L 436 926 L 437 925 L 442 924 L 445 922 L 447 922 L 450 920 L 452 920 L 454 918 L 456 918 L 459 916 L 466 914 L 475 909 L 477 909 L 481 907 L 499 888 L 499 887 L 512 872 L 516 866 L 522 860 L 526 854 L 531 849 L 540 837 L 561 813 L 568 803 L 578 792 L 579 790 L 579 782 Z M 504 344 L 498 348 L 487 359 L 487 360 L 474 374 L 474 375 L 469 380 L 460 392 L 453 399 L 450 404 L 444 410 L 435 422 L 432 424 L 430 428 L 424 434 L 415 446 L 412 448 L 403 462 L 403 465 L 400 472 L 400 484 L 401 485 L 401 489 L 407 502 L 410 506 L 418 513 L 426 517 L 432 518 L 436 520 L 449 520 L 450 519 L 453 519 L 469 511 L 488 492 L 488 491 L 497 483 L 497 482 L 509 470 L 509 469 L 519 460 L 519 459 L 538 440 L 539 438 L 544 435 L 547 435 L 553 440 L 557 451 L 557 476 L 556 477 L 554 485 L 548 497 L 548 499 L 542 509 L 542 512 L 539 517 L 539 519 L 537 522 L 535 529 L 532 533 L 532 536 L 526 548 L 524 555 L 521 559 L 520 564 L 515 573 L 514 577 L 512 579 L 508 592 L 504 600 L 504 608 L 509 614 L 518 614 L 523 610 L 526 604 L 526 602 L 529 597 L 529 595 L 533 588 L 536 578 L 540 572 L 540 569 L 542 567 L 542 565 L 546 558 L 546 556 L 548 554 L 550 550 L 550 548 L 554 541 L 554 539 L 556 536 L 556 533 L 560 526 L 561 522 L 563 520 L 563 518 L 566 513 L 566 510 L 568 507 L 568 505 L 573 496 L 573 494 L 577 484 L 578 473 L 579 472 L 579 457 L 578 456 L 578 449 L 577 448 L 577 443 L 576 442 L 575 437 L 576 436 L 583 436 L 584 435 L 610 435 L 611 436 L 614 436 L 615 435 L 619 435 L 624 432 L 626 428 L 626 422 L 623 417 L 617 414 L 568 414 L 567 415 L 563 415 L 562 414 L 542 414 L 541 415 L 534 416 L 525 421 L 523 424 L 482 465 L 482 466 L 480 467 L 479 470 L 477 471 L 454 495 L 451 497 L 444 498 L 443 499 L 432 497 L 426 492 L 422 484 L 422 473 L 425 466 L 430 461 L 430 460 L 433 458 L 434 456 L 435 456 L 446 441 L 455 432 L 455 431 L 460 426 L 460 425 L 473 410 L 473 409 L 477 406 L 477 405 L 485 397 L 490 390 L 502 377 L 505 372 L 511 366 L 523 359 L 527 359 L 532 357 L 540 357 L 541 356 L 556 356 L 557 357 L 584 357 L 585 356 L 601 356 L 602 357 L 674 357 L 675 358 L 679 358 L 683 360 L 698 363 L 708 368 L 710 368 L 722 376 L 725 377 L 728 380 L 731 381 L 754 405 L 759 412 L 759 414 L 770 427 L 770 432 L 765 442 L 763 444 L 761 449 L 759 451 L 758 455 L 756 457 L 751 468 L 749 470 L 745 478 L 744 482 L 739 489 L 739 492 L 735 497 L 728 511 L 728 513 L 726 515 L 718 531 L 718 533 L 716 535 L 710 548 L 708 550 L 696 573 L 694 575 L 694 577 L 692 579 L 673 618 L 671 620 L 671 622 L 669 624 L 660 642 L 656 642 L 650 639 L 640 632 L 636 631 L 628 626 L 618 623 L 616 621 L 614 621 L 608 618 L 602 617 L 599 615 L 596 615 L 593 613 L 585 611 L 583 609 L 581 609 L 565 603 L 562 603 L 561 602 L 552 602 L 550 603 L 546 608 L 546 617 L 547 619 L 551 622 L 556 623 L 559 625 L 562 625 L 564 627 L 566 627 L 569 629 L 572 629 L 575 631 L 578 631 L 582 633 L 588 634 L 591 636 L 593 636 L 596 638 L 601 639 L 611 644 L 613 644 L 625 650 L 627 652 L 629 652 L 637 656 L 639 658 L 650 664 L 653 667 L 657 669 L 662 674 L 663 674 L 674 685 L 682 691 L 697 706 L 703 710 L 713 720 L 714 720 L 718 725 L 725 730 L 734 739 L 735 739 L 737 742 L 738 742 L 746 750 L 747 750 L 754 757 L 755 757 L 759 761 L 759 762 L 760 762 L 774 775 L 777 781 L 777 784 L 778 785 L 778 792 L 779 793 L 779 807 L 780 808 L 780 820 L 781 821 L 781 837 L 783 841 L 783 850 L 784 851 L 784 865 L 785 866 L 785 879 L 786 880 L 786 890 L 787 891 L 787 906 L 788 907 L 788 918 L 789 919 L 789 928 L 790 929 L 791 949 L 792 950 L 793 955 L 796 960 L 801 965 L 805 967 L 808 970 L 821 975 L 826 975 L 827 976 L 830 976 L 831 977 L 834 977 L 838 979 L 844 980 L 846 982 L 851 983 L 855 987 L 857 991 L 857 996 L 855 1000 L 851 1004 L 846 1006 L 839 1006 L 838 1005 L 824 1005 L 823 1006 L 780 1005 L 779 1006 L 777 1006 L 776 1005 L 770 1004 L 761 996 L 759 993 L 759 990 L 756 983 L 756 980 L 755 979 L 755 976 L 753 971 L 753 967 L 752 966 L 752 962 L 751 961 L 749 951 L 746 944 L 746 940 L 745 939 L 745 936 L 744 935 L 744 932 L 742 927 L 742 922 L 740 918 L 738 907 L 736 903 L 735 894 L 733 890 L 733 887 L 732 886 L 732 883 L 731 882 L 731 879 L 730 878 L 730 875 L 729 874 L 729 871 L 728 870 L 728 867 L 726 862 L 726 858 L 725 857 L 724 850 L 721 843 L 720 834 L 719 833 L 718 827 L 717 826 L 716 821 L 714 818 L 714 816 L 709 810 L 706 809 L 690 798 L 689 796 L 685 795 L 677 789 L 674 788 L 671 786 L 670 784 L 667 783 L 655 774 L 653 774 L 647 769 L 630 758 L 625 756 L 620 756 L 619 757 L 617 757 L 613 761 L 613 763 L 612 764 L 612 770 L 616 776 L 625 782 L 628 783 L 631 786 L 634 787 L 639 791 L 642 792 L 646 796 L 649 798 L 651 798 L 669 810 L 672 813 L 679 816 L 691 824 L 696 829 L 697 831 L 697 835 L 700 843 L 700 846 L 702 850 L 703 857 L 704 858 L 704 863 L 705 864 L 705 867 L 707 872 L 708 881 L 710 883 L 710 887 L 711 888 L 711 891 L 712 892 L 712 895 L 714 900 L 714 905 L 717 910 L 717 914 L 718 915 L 718 919 L 720 924 L 721 933 L 722 934 L 724 945 L 726 948 L 726 952 L 727 953 L 728 961 L 730 966 L 731 975 L 732 976 L 734 986 L 737 993 L 737 997 L 743 1009 L 748 1014 L 748 1015 L 755 1021 L 765 1026 L 773 1027 L 774 1028 L 849 1028 L 853 1026 L 856 1026 L 864 1022 L 872 1014 L 875 1010 L 875 1008 L 877 1005 L 877 1000 L 878 999 L 878 987 L 874 976 L 868 968 L 862 964 L 856 961 L 850 960 L 838 955 L 835 955 L 834 954 L 827 953 L 826 952 L 822 952 L 818 950 L 813 944 L 812 931 L 811 930 L 811 921 L 810 920 L 810 910 L 809 909 L 809 893 L 808 892 L 808 883 L 807 882 L 807 874 L 806 873 L 806 856 L 805 855 L 804 836 L 803 835 L 803 820 L 802 819 L 802 804 L 801 803 L 801 795 L 800 794 L 800 783 L 799 782 L 798 776 L 792 763 L 789 759 L 781 752 L 780 750 L 779 750 L 769 740 L 761 734 L 745 718 L 738 713 L 735 709 L 734 709 L 726 701 L 725 701 L 711 687 L 704 682 L 695 673 L 694 673 L 691 669 L 677 658 L 677 655 L 683 643 L 688 636 L 689 632 L 691 630 L 694 622 L 698 617 L 702 608 L 704 606 L 712 588 L 718 579 L 718 577 L 722 569 L 724 567 L 729 556 L 731 554 L 737 542 L 737 540 L 742 533 L 744 528 L 746 528 L 758 540 L 758 541 L 767 550 L 767 551 L 771 554 L 786 570 L 793 574 L 795 574 L 798 576 L 802 576 L 807 578 L 811 578 L 812 579 L 822 579 L 823 578 L 827 578 L 828 577 L 831 577 L 832 576 L 835 576 L 838 574 L 840 574 L 855 563 L 862 556 L 874 547 L 887 535 L 889 535 L 892 531 L 898 527 L 904 521 L 916 513 L 916 512 L 925 504 L 926 504 L 930 500 L 933 499 L 945 488 L 954 482 L 968 470 L 969 467 L 975 459 L 975 457 L 977 453 L 977 432 L 971 418 L 967 414 L 967 413 L 957 405 L 955 405 L 953 403 L 951 403 L 947 401 L 933 400 L 932 401 L 922 402 L 914 406 L 905 412 L 900 417 L 895 420 L 891 424 L 890 424 L 886 428 L 870 440 L 863 447 L 859 449 L 831 472 L 827 472 L 820 464 L 808 445 L 803 439 L 802 436 L 796 429 L 794 424 L 791 421 L 786 412 L 781 406 L 780 403 L 777 400 L 773 393 L 766 385 L 763 380 L 739 359 L 733 356 L 731 354 L 706 342 L 700 341 L 696 339 L 693 339 L 689 337 L 678 336 L 677 335 L 649 335 L 648 334 L 628 334 L 627 335 L 602 335 L 601 334 L 563 335 L 562 334 L 541 334 L 540 335 L 529 335 L 521 338 L 517 338 Z M 954 432 L 954 436 L 955 437 L 955 450 L 947 459 L 943 461 L 937 467 L 928 473 L 893 503 L 884 509 L 875 518 L 874 518 L 868 524 L 865 525 L 845 543 L 833 552 L 825 556 L 813 557 L 812 556 L 807 556 L 801 553 L 778 530 L 778 529 L 770 521 L 770 520 L 763 513 L 762 513 L 757 507 L 757 503 L 760 498 L 760 496 L 765 489 L 771 476 L 773 474 L 773 472 L 775 469 L 775 467 L 777 463 L 780 460 L 781 456 L 784 452 L 786 452 L 795 466 L 802 475 L 802 477 L 812 489 L 814 489 L 817 491 L 819 491 L 826 494 L 833 494 L 842 490 L 844 488 L 846 488 L 853 483 L 858 478 L 863 475 L 868 470 L 873 467 L 878 462 L 883 459 L 888 454 L 898 447 L 899 445 L 900 445 L 909 437 L 913 435 L 926 424 L 930 422 L 940 422 L 941 423 L 944 423 L 948 425 Z M 790 166 L 789 167 L 786 167 L 785 168 L 777 170 L 774 172 L 772 172 L 754 182 L 745 190 L 745 191 L 736 200 L 732 206 L 732 208 L 730 210 L 724 222 L 723 228 L 721 230 L 721 233 L 720 234 L 720 239 L 719 240 L 719 245 L 718 246 L 718 256 L 719 257 L 720 274 L 721 275 L 721 278 L 722 279 L 724 287 L 731 301 L 737 310 L 747 321 L 748 321 L 753 326 L 757 328 L 758 330 L 771 337 L 773 337 L 786 342 L 789 342 L 790 343 L 805 344 L 806 343 L 818 343 L 819 342 L 831 341 L 841 336 L 846 335 L 865 322 L 865 321 L 871 315 L 872 315 L 872 314 L 877 309 L 880 303 L 884 298 L 892 278 L 892 271 L 893 270 L 893 266 L 894 265 L 894 251 L 895 250 L 895 247 L 894 246 L 894 241 L 892 236 L 892 231 L 890 228 L 890 225 L 888 222 L 887 216 L 877 200 L 865 187 L 865 186 L 861 184 L 857 180 L 840 171 L 838 171 L 835 169 L 832 169 L 828 167 L 821 167 L 820 166 L 814 166 L 813 165 L 796 165 L 795 166 Z M 796 187 L 813 187 L 814 188 L 824 189 L 825 190 L 830 191 L 833 193 L 835 193 L 839 196 L 842 197 L 852 206 L 853 206 L 861 215 L 867 225 L 867 227 L 869 229 L 869 231 L 871 235 L 871 238 L 872 239 L 872 243 L 873 244 L 873 265 L 872 266 L 871 274 L 868 282 L 861 292 L 860 295 L 846 309 L 844 309 L 841 312 L 832 316 L 830 318 L 828 318 L 824 320 L 799 322 L 798 321 L 793 321 L 792 320 L 785 319 L 781 316 L 778 316 L 774 314 L 763 306 L 757 300 L 749 289 L 745 281 L 744 276 L 742 273 L 742 267 L 740 262 L 740 246 L 741 245 L 741 241 L 742 240 L 744 230 L 746 228 L 746 226 L 751 217 L 757 209 L 770 198 L 773 197 L 780 192 L 782 192 L 788 189 L 795 188 Z" fill="#ffffff" fill-rule="evenodd"/>
  <path d="M 527 709 L 523 714 L 523 721 L 535 737 L 555 760 L 557 761 L 565 761 L 568 759 L 571 754 L 571 748 L 568 743 L 558 732 L 558 731 L 549 721 L 545 715 L 539 709 L 535 707 L 531 707 Z M 441 701 L 437 699 L 430 699 L 428 700 L 413 713 L 393 728 L 388 733 L 388 735 L 387 736 L 387 741 L 388 742 L 388 744 L 391 747 L 396 749 L 402 748 L 409 743 L 420 733 L 435 722 L 440 717 L 441 717 L 444 713 L 444 706 Z M 555 677 L 555 684 L 557 688 L 562 691 L 567 691 L 568 692 L 580 692 L 581 693 L 599 694 L 600 695 L 614 695 L 620 690 L 620 687 L 621 686 L 620 680 L 614 675 L 606 675 L 605 674 L 597 674 L 596 673 L 589 673 L 588 672 L 579 672 L 578 671 L 562 670 L 560 671 Z M 373 648 L 374 654 L 377 658 L 379 659 L 383 659 L 384 660 L 390 660 L 391 661 L 401 661 L 402 662 L 420 663 L 421 664 L 432 664 L 438 659 L 438 657 L 439 656 L 439 652 L 437 647 L 432 644 L 428 644 L 427 643 L 419 643 L 418 642 L 411 642 L 410 641 L 403 641 L 402 640 L 394 640 L 393 639 L 386 639 L 385 638 L 382 638 L 381 639 L 379 639 L 374 644 L 374 647 Z M 492 626 L 491 627 L 487 627 L 480 630 L 470 638 L 466 644 L 462 653 L 462 656 L 461 657 L 461 669 L 462 670 L 463 676 L 466 682 L 470 688 L 476 693 L 481 695 L 483 697 L 485 697 L 489 699 L 501 700 L 502 699 L 507 699 L 515 696 L 522 691 L 529 683 L 533 675 L 533 672 L 534 671 L 534 656 L 533 655 L 532 649 L 529 643 L 520 633 L 514 629 L 512 629 L 508 627 L 505 627 L 504 626 Z M 429 565 L 424 570 L 424 578 L 454 618 L 458 620 L 463 620 L 464 619 L 466 619 L 471 613 L 471 606 L 470 604 L 466 600 L 441 566 L 437 564 L 431 564 Z" fill="#d27d73" fill-rule="evenodd"/>
</svg>