<svg xmlns="http://www.w3.org/2000/svg" width="1254" height="1254" viewBox="0 0 1254 1254" fill="none">
  <path d="M 953 574 L 952 575 L 947 575 L 946 576 L 939 577 L 936 579 L 931 580 L 921 585 L 910 593 L 897 607 L 888 623 L 888 625 L 886 628 L 886 630 L 884 634 L 884 638 L 883 639 L 883 643 L 882 644 L 882 670 L 883 671 L 883 675 L 884 676 L 886 686 L 892 699 L 901 712 L 915 725 L 933 735 L 935 735 L 942 738 L 950 739 L 951 740 L 974 740 L 975 739 L 980 739 L 981 738 L 988 737 L 1005 729 L 1015 722 L 1029 707 L 1039 689 L 1039 687 L 1042 680 L 1042 677 L 1043 676 L 1044 662 L 1045 661 L 1044 643 L 1043 642 L 1043 638 L 1042 637 L 1042 633 L 1041 632 L 1040 627 L 1034 614 L 1027 604 L 1014 591 L 1002 583 L 996 580 L 991 579 L 988 577 L 985 577 L 980 575 L 975 575 L 974 574 Z M 953 596 L 974 596 L 975 597 L 979 597 L 992 602 L 1003 610 L 1013 621 L 1019 632 L 1019 634 L 1021 637 L 1022 644 L 1023 645 L 1023 652 L 1024 653 L 1022 673 L 1016 688 L 1009 698 L 1004 703 L 993 711 L 982 716 L 974 717 L 973 718 L 968 718 L 967 719 L 952 718 L 951 717 L 941 715 L 933 711 L 922 703 L 918 699 L 909 686 L 908 682 L 906 679 L 906 676 L 905 675 L 904 668 L 903 667 L 903 647 L 904 646 L 904 643 L 905 642 L 905 639 L 906 638 L 907 633 L 913 622 L 916 618 L 930 605 L 942 599 L 944 599 L 948 597 L 952 597 Z M 162 783 L 162 786 L 161 787 L 161 802 L 162 803 L 162 807 L 165 813 L 165 815 L 168 819 L 169 822 L 176 830 L 183 835 L 194 840 L 202 841 L 203 842 L 227 842 L 228 843 L 228 1030 L 229 1032 L 235 1037 L 242 1037 L 244 1036 L 248 1032 L 248 1030 L 249 1029 L 249 843 L 250 842 L 280 842 L 281 843 L 281 1016 L 282 1017 L 282 1019 L 288 1024 L 295 1024 L 299 1022 L 301 1020 L 303 1015 L 303 883 L 304 882 L 949 882 L 950 883 L 950 1016 L 951 1017 L 951 1019 L 955 1023 L 957 1024 L 965 1024 L 970 1020 L 971 1015 L 972 1014 L 972 970 L 971 969 L 971 963 L 972 962 L 972 958 L 971 957 L 971 936 L 972 935 L 972 901 L 971 900 L 971 892 L 972 891 L 972 843 L 973 842 L 1003 842 L 1004 843 L 1004 871 L 1003 872 L 1003 900 L 1004 901 L 1004 935 L 1003 936 L 1004 1004 L 1003 1005 L 1003 1027 L 1004 1028 L 1004 1031 L 1007 1035 L 1011 1037 L 1018 1037 L 1024 1032 L 1024 1030 L 1025 1029 L 1025 843 L 1026 842 L 1051 842 L 1052 841 L 1056 841 L 1057 840 L 1062 839 L 1070 835 L 1074 832 L 1085 820 L 1090 809 L 1091 800 L 1092 799 L 1092 789 L 1091 788 L 1091 784 L 1090 783 L 1089 778 L 1082 765 L 1071 755 L 1055 748 L 1049 748 L 1048 747 L 866 747 L 865 746 L 865 744 L 867 741 L 867 739 L 871 729 L 871 726 L 872 725 L 872 722 L 874 717 L 874 713 L 875 712 L 875 705 L 876 704 L 877 689 L 876 688 L 876 679 L 875 678 L 875 672 L 874 671 L 873 664 L 868 653 L 868 651 L 862 640 L 860 638 L 856 638 L 848 646 L 843 648 L 843 650 L 849 660 L 849 662 L 851 665 L 851 667 L 853 671 L 854 679 L 855 680 L 855 688 L 856 689 L 854 710 L 853 711 L 853 715 L 852 716 L 852 719 L 851 720 L 851 723 L 850 724 L 848 732 L 844 740 L 835 752 L 827 759 L 816 765 L 814 765 L 813 766 L 808 766 L 807 767 L 788 767 L 787 768 L 771 768 L 770 769 L 748 769 L 747 770 L 723 770 L 722 771 L 698 771 L 697 772 L 674 772 L 673 773 L 645 773 L 644 774 L 635 774 L 634 773 L 628 772 L 625 770 L 620 764 L 620 761 L 619 760 L 619 749 L 620 748 L 620 746 L 623 741 L 627 737 L 635 732 L 643 731 L 644 730 L 650 730 L 651 729 L 657 729 L 658 728 L 664 728 L 665 727 L 671 727 L 672 726 L 680 726 L 681 725 L 687 725 L 688 724 L 694 724 L 695 723 L 702 723 L 703 722 L 709 722 L 710 721 L 717 721 L 718 720 L 725 720 L 726 719 L 731 719 L 732 718 L 746 717 L 747 716 L 752 716 L 753 715 L 761 715 L 762 714 L 767 714 L 768 713 L 784 712 L 789 710 L 792 707 L 794 703 L 794 699 L 792 694 L 788 691 L 786 691 L 785 690 L 773 691 L 772 692 L 764 692 L 763 693 L 755 693 L 754 694 L 747 694 L 746 695 L 732 696 L 731 697 L 717 698 L 716 699 L 709 699 L 708 700 L 702 700 L 701 701 L 688 702 L 687 703 L 681 703 L 680 704 L 673 704 L 672 705 L 666 705 L 665 706 L 659 706 L 658 707 L 652 707 L 651 708 L 645 708 L 644 709 L 637 709 L 636 710 L 633 710 L 627 713 L 625 713 L 615 719 L 608 726 L 603 733 L 599 743 L 599 746 L 598 747 L 535 747 L 534 746 L 534 700 L 535 699 L 535 661 L 536 660 L 546 659 L 547 658 L 553 658 L 554 657 L 559 657 L 560 656 L 565 656 L 566 655 L 572 655 L 573 654 L 578 654 L 579 653 L 584 653 L 585 652 L 590 652 L 591 651 L 596 651 L 597 650 L 602 650 L 603 649 L 608 649 L 609 648 L 614 648 L 615 647 L 620 647 L 621 646 L 629 646 L 630 647 L 638 649 L 641 651 L 643 651 L 665 659 L 681 659 L 693 654 L 703 645 L 707 638 L 707 636 L 710 629 L 710 615 L 709 614 L 709 611 L 705 601 L 699 593 L 688 584 L 678 579 L 676 579 L 665 573 L 663 573 L 654 568 L 652 568 L 648 565 L 649 555 L 650 554 L 650 548 L 651 547 L 651 542 L 652 541 L 652 534 L 653 533 L 653 526 L 654 525 L 656 505 L 657 504 L 657 498 L 658 497 L 658 490 L 659 489 L 660 474 L 661 473 L 661 466 L 660 464 L 654 459 L 648 459 L 644 461 L 641 465 L 641 467 L 640 468 L 640 475 L 639 476 L 638 490 L 637 491 L 637 497 L 636 498 L 636 504 L 635 505 L 635 511 L 634 512 L 634 518 L 633 519 L 633 525 L 632 526 L 632 533 L 631 534 L 629 554 L 628 555 L 625 555 L 613 549 L 611 549 L 606 546 L 604 546 L 598 543 L 591 536 L 556 466 L 556 464 L 548 448 L 544 444 L 542 444 L 541 443 L 536 443 L 535 444 L 533 444 L 528 450 L 528 457 L 538 476 L 538 478 L 549 500 L 551 502 L 551 504 L 573 548 L 579 556 L 587 562 L 593 565 L 600 567 L 609 572 L 611 572 L 629 581 L 631 581 L 642 587 L 644 587 L 651 591 L 653 591 L 660 595 L 662 595 L 671 600 L 673 600 L 679 603 L 686 610 L 689 617 L 689 627 L 686 633 L 683 636 L 676 639 L 667 638 L 666 637 L 661 636 L 656 633 L 648 631 L 645 629 L 640 628 L 632 624 L 627 623 L 624 621 L 622 621 L 609 615 L 607 615 L 601 612 L 596 611 L 593 609 L 585 607 L 580 604 L 572 602 L 569 600 L 562 598 L 560 596 L 554 593 L 546 585 L 540 576 L 521 538 L 521 536 L 519 534 L 498 491 L 496 489 L 496 487 L 494 485 L 489 474 L 487 472 L 483 462 L 482 446 L 483 445 L 483 437 L 484 436 L 484 432 L 486 428 L 486 425 L 494 412 L 500 406 L 508 401 L 510 401 L 518 397 L 522 397 L 527 395 L 586 395 L 587 396 L 611 396 L 612 397 L 623 398 L 624 399 L 632 401 L 646 409 L 659 423 L 666 437 L 666 439 L 669 446 L 669 449 L 670 450 L 673 461 L 675 464 L 675 466 L 680 479 L 680 482 L 682 485 L 683 491 L 688 493 L 693 493 L 704 501 L 706 501 L 707 500 L 707 493 L 705 490 L 705 487 L 703 484 L 703 482 L 702 481 L 696 461 L 694 458 L 694 456 L 688 440 L 688 437 L 685 431 L 682 421 L 674 407 L 661 393 L 651 386 L 645 383 L 643 383 L 641 381 L 639 381 L 633 378 L 625 377 L 624 376 L 619 376 L 618 375 L 602 375 L 601 374 L 561 374 L 560 373 L 529 373 L 528 374 L 516 375 L 515 376 L 512 376 L 511 377 L 506 378 L 492 385 L 484 391 L 474 402 L 466 417 L 466 419 L 464 423 L 464 426 L 463 427 L 462 437 L 461 438 L 461 451 L 460 452 L 460 464 L 459 465 L 459 481 L 458 482 L 458 495 L 457 496 L 457 508 L 456 509 L 456 520 L 455 521 L 455 534 L 454 535 L 454 547 L 453 548 L 453 564 L 452 565 L 452 577 L 451 578 L 451 589 L 450 590 L 450 606 L 449 607 L 449 618 L 448 619 L 448 632 L 447 633 L 447 645 L 446 646 L 446 651 L 445 652 L 441 652 L 440 653 L 425 654 L 424 655 L 410 656 L 409 657 L 364 657 L 363 658 L 290 658 L 289 659 L 277 660 L 276 661 L 271 662 L 268 664 L 266 664 L 255 671 L 248 678 L 248 679 L 244 683 L 237 699 L 236 709 L 235 710 L 236 724 L 237 725 L 237 728 L 238 729 L 239 734 L 242 740 L 244 742 L 245 746 L 244 747 L 204 747 L 203 748 L 198 748 L 197 749 L 191 750 L 180 756 L 169 767 L 168 770 L 165 774 L 165 776 Z M 303 843 L 304 842 L 949 842 L 950 843 L 950 860 L 949 861 L 304 861 L 303 860 Z M 182 790 L 186 780 L 195 772 L 203 769 L 600 769 L 604 778 L 609 783 L 609 784 L 617 790 L 623 793 L 631 794 L 632 795 L 645 795 L 646 794 L 678 794 L 679 793 L 702 793 L 703 792 L 733 792 L 734 791 L 757 791 L 758 790 L 777 790 L 778 789 L 801 789 L 802 788 L 813 788 L 814 787 L 818 787 L 831 782 L 833 780 L 839 777 L 848 769 L 1050 769 L 1058 772 L 1062 775 L 1067 781 L 1070 787 L 1071 799 L 1068 807 L 1060 816 L 1052 820 L 1048 820 L 1047 821 L 695 821 L 694 820 L 692 820 L 691 821 L 550 821 L 549 820 L 543 820 L 542 821 L 207 821 L 206 820 L 202 820 L 201 819 L 196 818 L 186 809 L 182 800 Z M 514 665 L 514 693 L 513 694 L 513 746 L 512 747 L 286 747 L 285 746 L 279 745 L 270 740 L 262 732 L 258 724 L 258 721 L 257 720 L 257 715 L 256 714 L 256 712 L 257 711 L 257 706 L 262 695 L 273 685 L 279 682 L 285 681 L 286 680 L 296 680 L 297 679 L 299 679 L 300 680 L 318 680 L 319 679 L 402 679 L 403 678 L 414 678 L 415 677 L 422 677 L 423 676 L 429 676 L 430 675 L 438 675 L 439 674 L 447 674 L 448 673 L 463 672 L 464 671 L 484 669 L 485 668 L 497 667 L 498 666 L 504 666 L 505 665 L 510 665 L 511 664 L 513 664 Z M 479 504 L 481 504 L 482 505 L 525 591 L 532 601 L 540 609 L 546 613 L 556 618 L 558 618 L 561 620 L 569 622 L 572 624 L 574 624 L 577 626 L 581 627 L 582 628 L 582 630 L 580 632 L 575 632 L 574 633 L 569 633 L 568 634 L 562 634 L 561 635 L 555 635 L 554 636 L 549 636 L 548 637 L 543 637 L 542 638 L 537 638 L 536 639 L 531 639 L 530 640 L 525 640 L 524 641 L 518 641 L 517 642 L 512 642 L 511 643 L 506 643 L 505 644 L 500 644 L 499 645 L 485 646 L 484 647 L 474 648 L 473 649 L 468 649 L 467 648 L 467 646 L 468 645 L 468 634 L 469 633 L 469 619 L 470 618 L 470 606 L 471 605 L 471 592 L 472 591 L 472 578 L 473 577 L 474 552 L 475 551 L 476 522 L 477 521 L 477 511 L 478 510 L 478 505 Z M 586 200 L 585 201 L 577 201 L 576 202 L 572 202 L 571 203 L 568 203 L 567 204 L 559 206 L 556 208 L 554 208 L 545 213 L 537 219 L 527 229 L 518 242 L 511 259 L 510 267 L 509 268 L 509 274 L 508 275 L 508 292 L 509 293 L 510 305 L 511 306 L 514 317 L 519 327 L 526 337 L 538 349 L 550 357 L 561 362 L 563 362 L 567 364 L 570 364 L 571 365 L 575 365 L 576 366 L 586 366 L 587 367 L 591 367 L 592 366 L 602 366 L 603 365 L 608 365 L 609 364 L 612 364 L 613 363 L 618 362 L 621 360 L 623 360 L 634 354 L 641 349 L 653 337 L 661 325 L 665 317 L 665 315 L 669 305 L 670 295 L 671 294 L 671 273 L 670 272 L 670 267 L 669 266 L 667 255 L 661 242 L 652 229 L 642 219 L 627 209 L 625 209 L 620 206 L 615 205 L 612 203 L 603 202 L 602 201 Z M 583 222 L 597 222 L 598 223 L 607 224 L 622 231 L 626 234 L 638 246 L 642 252 L 646 260 L 646 262 L 648 266 L 648 269 L 649 270 L 649 274 L 650 275 L 650 292 L 649 293 L 648 301 L 641 317 L 635 325 L 625 334 L 619 337 L 617 339 L 615 339 L 612 341 L 610 341 L 606 343 L 597 344 L 596 345 L 582 345 L 581 344 L 573 343 L 572 342 L 567 341 L 562 338 L 560 338 L 554 334 L 538 317 L 534 309 L 534 307 L 531 300 L 530 290 L 529 289 L 529 279 L 530 278 L 531 267 L 532 266 L 534 258 L 542 245 L 557 231 L 567 226 L 569 226 L 573 224 L 576 224 L 577 223 L 582 223 Z" fill="#6d6661" fill-rule="evenodd"/>
  <path d="M 774 604 L 774 610 L 779 616 L 781 616 L 782 617 L 792 617 L 793 618 L 798 618 L 802 620 L 808 621 L 820 627 L 834 638 L 834 639 L 841 647 L 848 645 L 856 637 L 857 637 L 857 634 L 855 631 L 845 620 L 830 609 L 816 602 L 814 602 L 807 599 L 796 597 L 795 596 L 785 595 L 780 597 Z M 737 595 L 730 598 L 723 606 L 723 608 L 721 612 L 721 620 L 722 621 L 723 626 L 725 629 L 731 634 L 738 637 L 747 637 L 754 634 L 762 625 L 762 623 L 763 622 L 763 610 L 761 605 L 755 598 L 748 595 Z M 865 506 L 862 504 L 854 504 L 852 505 L 844 514 L 844 515 L 814 552 L 813 554 L 813 561 L 817 566 L 819 567 L 826 567 L 828 566 L 837 556 L 837 555 L 841 551 L 844 546 L 849 541 L 857 530 L 862 525 L 862 524 L 866 520 L 867 515 L 868 514 L 867 509 Z M 677 505 L 673 509 L 673 511 L 672 512 L 672 515 L 674 520 L 690 544 L 693 547 L 705 565 L 706 568 L 711 573 L 720 573 L 724 570 L 726 566 L 726 561 L 723 555 L 715 545 L 712 539 L 705 530 L 704 527 L 701 524 L 700 521 L 692 509 L 686 504 L 679 504 Z M 772 463 L 770 464 L 766 469 L 766 479 L 765 480 L 765 483 L 766 484 L 766 487 L 765 488 L 765 542 L 766 544 L 771 548 L 779 548 L 784 544 L 784 542 L 785 541 L 786 470 L 781 464 L 779 463 Z" fill="#d27d73" fill-rule="evenodd"/>
</svg>